<svg width="500" height="371" viewBox="0 0 500 371" fill="none" xmlns="http://www.w3.org/2000/svg">
<g clip-path="url(#clip0)">
<path d="M470.37 334.732C465.717 334.732 461.254 336.581 457.964 339.871C454.674 343.161 452.825 347.623 452.825 352.276C452.825 356.929 454.674 361.392 457.964 364.682C461.254 367.972 465.716 369.821 470.369 369.821H470.37C475.023 369.821 479.485 367.972 482.775 364.682C486.065 361.392 487.914 356.93 487.914 352.277C487.914 347.623 486.065 343.161 482.775 339.871C479.485 336.581 475.023 334.732 470.37 334.732Z" fill="#CCCCCC"/>
<path d="M468.705 359.563C468.243 359.564 467.793 359.414 467.424 359.137L467.401 359.12L462.576 355.429C462.353 355.258 462.165 355.044 462.024 354.8C461.883 354.557 461.792 354.287 461.755 354.008C461.718 353.729 461.736 353.445 461.809 353.173C461.882 352.901 462.007 352.646 462.179 352.423C462.35 352.199 462.564 352.011 462.808 351.871C463.051 351.73 463.321 351.638 463.6 351.601C463.879 351.565 464.163 351.583 464.435 351.656C464.707 351.729 464.962 351.855 465.185 352.026L468.31 354.422L475.695 344.788C475.866 344.565 476.08 344.377 476.324 344.237C476.567 344.096 476.836 344.004 477.115 343.968C477.394 343.931 477.678 343.949 477.95 344.022C478.222 344.095 478.477 344.22 478.7 344.391L478.701 344.392L478.655 344.456L478.702 344.392C479.152 344.738 479.447 345.249 479.522 345.813C479.596 346.376 479.444 346.946 479.098 347.397L470.412 358.724C470.211 358.985 469.953 359.196 469.657 359.341C469.361 359.486 469.036 359.561 468.707 359.56L468.705 359.563Z" fill="white"/>
<path d="M432.171 362.804L423.864 362.804L419.915 330.763L432.174 330.765L432.171 362.804Z" fill="#FFB8B8"/>
<path d="M417.931 360.43H433.951V370.517H407.844C407.844 369.192 408.105 367.881 408.612 366.657C409.119 365.433 409.862 364.321 410.799 363.385C411.735 362.448 412.847 361.705 414.071 361.198C415.295 360.691 416.606 360.43 417.931 360.43Z" fill="#2F2E41"/>
<path d="M399.111 362.804L390.804 362.804L386.854 330.763L399.114 330.765L399.111 362.804Z" fill="#FFB8B8"/>
<path d="M384.871 360.43H400.891V370.517H374.784C374.784 369.192 375.045 367.881 375.552 366.657C376.059 365.433 376.802 364.321 377.738 363.385C378.675 362.448 379.787 361.705 381.011 361.198C382.234 360.691 383.546 360.43 384.871 360.43Z" fill="#2F2E41"/>
<path d="M438.57 252.034C437.902 251.295 437.403 250.419 437.11 249.467C436.816 248.516 436.735 247.511 436.872 246.524C437.009 245.538 437.361 244.593 437.902 243.757C438.444 242.921 439.162 242.214 440.006 241.685L437.433 226.33L446.384 222.49L449.712 244.226C450.506 245.704 450.73 247.421 450.343 249.052C449.955 250.684 448.982 252.117 447.609 253.079C446.236 254.041 444.557 254.466 442.891 254.274C441.225 254.081 439.688 253.284 438.57 252.034V252.034Z" fill="#FFB8B8"/>
<path d="M368.498 244.778C369.279 244.16 369.916 243.379 370.362 242.488C370.809 241.598 371.055 240.621 371.083 239.625C371.111 238.629 370.92 237.64 370.524 236.726C370.128 235.811 369.537 234.995 368.792 234.335L373.866 219.615L365.673 214.35L358.799 235.237C357.772 236.563 357.267 238.22 357.38 239.893C357.493 241.566 358.215 243.14 359.411 244.316C360.606 245.492 362.192 246.188 363.867 246.273C365.541 246.359 367.189 245.827 368.498 244.778Z" fill="#FFB8B8"/>
<path d="M411.041 136.34C420.897 136.34 428.887 128.35 428.887 118.494C428.887 108.638 420.897 100.648 411.041 100.648C401.185 100.648 393.195 108.638 393.195 118.494C393.195 128.35 401.185 136.34 411.041 136.34Z" fill="#FFB8B8"/>
<path d="M367.946 233.766C367.64 233.766 367.335 233.722 367.041 233.638L361.84 232.144C361.009 231.904 360.307 231.345 359.887 230.59C359.467 229.834 359.362 228.943 359.596 228.111L370.331 190.21L385.3 153.462C386.789 149.808 389.899 147.412 393.417 147.209C395.023 147.131 396.618 147.52 398.008 148.329C399.398 149.139 400.523 150.334 401.248 151.77C402.053 153.307 402.495 155.008 402.54 156.743C402.585 158.477 402.232 160.199 401.507 161.776L384.492 198.985L370.966 231.743C370.719 232.341 370.301 232.853 369.763 233.213C369.226 233.573 368.593 233.765 367.946 233.766Z" fill="#2EC5CE"/>
<path d="M421.112 133.46L411.196 133.637C410.163 133.657 409.14 133.434 408.209 132.987C407.278 132.539 406.465 131.879 405.836 131.059C405.207 130.24 404.78 129.284 404.588 128.269C404.396 127.254 404.446 126.208 404.732 125.215C404.944 124.498 405.103 123.767 405.209 123.026C405.32 122.219 405.342 121.402 405.274 120.59C405.211 119.776 404.874 119.009 404.317 118.412C403.761 117.816 403.018 117.426 402.211 117.307C401.404 117.188 400.581 117.347 399.876 117.758C399.171 118.168 398.626 118.806 398.331 119.566C396.664 119.59 393.112 119.047 391.445 119.07C387.905 109.995 395.619 98.12 403.924 93.6597C412.389 89.1126 423.379 93.7387 426.624 103.216C431.127 103.297 434.787 107.739 435.367 112.739C435.948 117.739 433.89 122.96 430.744 126.793C427.597 130.625 423.465 133.418 421.112 133.46Z" fill="#2F2E41"/>
<path d="M388.517 359.813C387.714 359.809 386.94 359.51 386.343 358.973C385.745 358.436 385.366 357.698 385.276 356.9L381.597 233.206L427.945 236.505L427.98 236.803C438.454 324.477 434.874 354.827 434.836 355.123C434.811 355.571 434.693 356.01 434.49 356.411C434.287 356.812 434.004 357.167 433.658 357.453C433.312 357.74 432.91 357.952 432.479 358.076C432.047 358.201 431.594 358.235 431.149 358.177L420.906 358.422C420.129 358.334 419.41 357.971 418.878 357.398C418.347 356.826 418.038 356.082 418.008 355.301L408.437 265.711C408.378 265.478 408.239 265.274 408.044 265.133C407.849 264.993 407.611 264.926 407.372 264.943C407.125 264.943 406.886 265.027 406.696 265.183C406.505 265.339 406.374 265.557 406.326 265.799L402.629 355.682C402.668 356.516 402.385 357.334 401.839 357.966C401.292 358.597 400.524 358.995 399.692 359.076L388.842 359.797C388.734 359.808 388.626 359.813 388.517 359.813Z" fill="#2F2E41"/>
<path d="M407.75 247.986C407.473 247.986 407.196 247.982 406.918 247.973C393.591 247.572 383.164 237.489 380.286 234.408C379.92 234.015 379.656 233.538 379.519 233.018C379.382 232.499 379.375 231.953 379.5 231.431L387.189 198.905L385.149 170.628C384.829 166.703 385.343 162.756 386.659 159.044C387.975 155.333 390.062 151.943 392.782 149.096C395.05 146.701 397.805 144.822 400.862 143.585C403.92 142.348 407.207 141.783 410.502 141.928C423.475 142.547 433.71 154.143 433.803 168.327C433.946 190.296 433.3 191.805 433.087 192.301C426.613 207.412 430.149 228.623 431.387 234.765C431.497 235.313 431.466 235.88 431.296 236.412C431.126 236.945 430.823 237.425 430.415 237.807C423.294 244.564 415.672 247.986 407.75 247.986Z" fill="#2EC5CE"/>
<path d="M441.221 239.718C440.481 239.717 439.764 239.466 439.185 239.005C438.607 238.544 438.203 237.9 438.038 237.179L430.106 202.624L419.475 163.128C419.021 161.453 418.957 159.696 419.288 157.993C419.619 156.29 420.336 154.685 421.384 153.302C422.336 152.006 423.644 151.014 425.148 150.445C426.652 149.877 428.289 149.756 429.861 150.098C433.297 150.88 435.968 153.756 436.833 157.605L445.519 196.282L449.851 235.475C449.945 236.335 449.694 237.197 449.155 237.872C448.616 238.548 447.831 238.983 446.972 239.083L441.595 239.696C441.471 239.711 441.346 239.718 441.221 239.718Z" fill="#2EC5CE"/>
<path d="M212.895 37.7833H18.8917C13.8813 37.7833 9.07611 35.793 5.53323 32.2501C1.99035 28.7072 0 23.9021 0 18.8917C0 13.8813 1.99035 9.07612 5.53323 5.53324C9.07611 1.99036 13.8813 0 18.8917 0H212.895C217.905 0 222.71 1.99036 226.253 5.53324C229.796 9.07612 231.786 13.8813 231.786 18.8917C231.786 23.9021 229.796 28.7072 226.253 32.2501C222.71 35.793 217.905 37.7833 212.895 37.7833Z" fill="#E6E6E6"/>
<path d="M18.8916 6.17615C15.5192 6.17615 12.285 7.51581 9.90033 9.90044C7.5157 12.2851 6.17603 15.5193 6.17603 18.8917C6.17603 22.2641 7.5157 25.4983 9.90033 27.883C12.285 30.2676 15.5192 31.6072 18.8916 31.6072H212.895C216.267 31.6072 219.501 30.2676 221.886 27.883C224.27 25.4983 225.61 22.2641 225.61 18.8917C225.61 15.5193 224.27 12.2851 221.886 9.90044C219.501 7.51581 216.267 6.17615 212.895 6.17615H18.8916Z" fill="white"/>
<path d="M281.453 1.22156C276.8 1.22154 272.337 3.06994 269.047 6.36012C265.757 9.6503 263.908 14.1128 263.908 18.7658C263.908 23.4188 265.757 27.8813 269.047 31.1715C272.337 34.4617 276.8 36.3102 281.453 36.3102C286.106 36.3102 290.568 34.4618 293.859 31.1716C297.149 27.8814 298.997 23.4189 298.997 18.7659C298.997 14.1128 297.149 9.65036 293.859 6.36016C290.568 3.06997 286.106 1.22156 281.453 1.22156Z" fill="#2EC5CE"/>
<path d="M279.788 26.052C279.326 26.0528 278.877 25.9034 278.507 25.6263L278.484 25.6091L273.66 21.9184C273.436 21.7471 273.248 21.5335 273.107 21.2897C272.966 21.0459 272.875 20.7767 272.838 20.4975C272.801 20.2183 272.819 19.9345 272.892 19.6625C272.965 19.3904 273.09 19.1353 273.262 18.9118C273.433 18.6883 273.647 18.5007 273.891 18.3598C274.135 18.2189 274.404 18.1274 274.683 18.0906C274.962 18.0538 275.246 18.0723 275.518 18.1452C275.79 18.2181 276.045 18.3438 276.269 18.5153L279.394 20.9117L286.778 11.2776C286.95 11.0542 287.163 10.8668 287.407 10.7259C287.65 10.5851 287.92 10.4937 288.199 10.4568C288.478 10.42 288.761 10.4384 289.033 10.5111C289.305 10.5839 289.56 10.7094 289.783 10.8807L289.784 10.8812L289.738 10.9448L289.785 10.8812C290.236 11.2275 290.53 11.7384 290.605 12.3019C290.679 12.8653 290.527 13.4352 290.181 13.8866L281.495 25.2133C281.295 25.4743 281.036 25.6855 280.74 25.8305C280.445 25.9755 280.119 26.0504 279.79 26.0495L279.788 26.052Z" fill="white"/>
<path d="M212.895 101.724H18.8917C13.8813 101.724 9.07611 99.734 5.53323 96.1911C1.99035 92.6483 0 87.8431 0 82.8327C0 77.8223 1.99035 73.0172 5.53323 69.4743C9.07611 65.9314 13.8813 63.941 18.8917 63.941H212.895C217.905 63.941 222.71 65.9314 226.253 69.4743C229.796 73.0172 231.786 77.8223 231.786 82.8327C231.786 87.8431 229.796 92.6483 226.253 96.1911C222.71 99.734 217.905 101.724 212.895 101.724Z" fill="#E6E6E6"/>
<path d="M18.8916 70.1172C15.5192 70.1172 12.285 71.4569 9.90033 73.8415C7.5157 76.2261 6.17603 79.4604 6.17603 82.8327C6.17603 86.2051 7.5157 89.4394 9.90033 91.824C12.285 94.2086 15.5192 95.5483 18.8916 95.5483H212.895C216.267 95.5483 219.501 94.2086 221.886 91.824C224.27 89.4394 225.61 86.2051 225.61 82.8327C225.61 79.4604 224.27 76.2261 221.886 73.8415C219.501 71.4569 216.267 70.1172 212.895 70.1172H18.8916Z" fill="white"/>
<path d="M281.453 65.1626C276.8 65.1626 272.337 67.011 269.047 70.3012C265.757 73.5914 263.908 78.0538 263.908 82.7069C263.908 87.3599 265.757 91.8224 269.047 95.1126C272.337 98.4028 276.8 100.251 281.453 100.251H281.453C286.106 100.251 290.568 98.4028 293.859 95.1126C297.149 91.8224 298.997 87.36 298.997 82.7069C298.997 78.0539 297.149 73.5914 293.859 70.3012C290.568 67.011 286.106 65.1626 281.453 65.1626Z" fill="#2EC5CE"/>
<path d="M279.788 89.9932C279.326 89.994 278.877 89.8445 278.507 89.5675L278.484 89.5503L273.66 85.8595C273.436 85.6883 273.248 85.4746 273.107 85.2308C272.966 84.987 272.875 84.7179 272.838 84.4386C272.801 84.1594 272.819 83.8757 272.892 83.6036C272.965 83.3315 273.09 83.0764 273.262 82.8529C273.433 82.6294 273.647 82.4419 273.891 82.301C274.135 82.1601 274.404 82.0686 274.683 82.0318C274.962 81.995 275.246 82.0135 275.518 82.0863C275.79 82.1592 276.045 82.285 276.269 82.4564L279.394 84.8529L286.778 75.2187C286.95 74.9954 287.163 74.8079 287.407 74.6671C287.65 74.5263 287.92 74.4348 288.199 74.398C288.478 74.3611 288.761 74.3796 289.033 74.4523C289.305 74.525 289.56 74.6506 289.783 74.8218L289.784 74.8223L289.738 74.886L289.785 74.8223C290.236 75.1686 290.53 75.6796 290.605 76.243C290.679 76.8065 290.527 77.3764 290.181 77.8277L281.495 89.1545C281.295 89.4155 281.036 89.6267 280.74 89.7717C280.445 89.9167 280.119 89.9916 279.79 89.9906L279.788 89.9932Z" fill="white"/>
<path d="M212.895 165.665H18.8917C13.8813 165.665 9.07611 163.675 5.53323 160.132C1.99035 156.589 0 151.784 0 146.774C0 141.763 1.99035 136.958 5.53323 133.415C9.07611 129.872 13.8813 127.882 18.8917 127.882H212.895C217.905 127.882 222.71 129.872 226.253 133.415C229.796 136.958 231.786 141.763 231.786 146.774C231.786 151.784 229.796 156.589 226.253 160.132C222.71 163.675 217.905 165.665 212.895 165.665Z" fill="#E6E6E6"/>
<path d="M18.8916 134.058C15.5192 134.058 12.285 135.398 9.90033 137.783C7.5157 140.167 6.17603 143.401 6.17603 146.774C6.17603 150.146 7.5157 153.38 9.90033 155.765C12.285 158.15 15.5192 159.489 18.8916 159.489H212.895C216.267 159.489 219.501 158.15 221.886 155.765C224.27 153.38 225.61 150.146 225.61 146.774C225.61 143.401 224.27 140.167 221.886 137.783C219.501 135.398 216.267 134.058 212.895 134.058H18.8916Z" fill="white"/>
<path d="M281.453 129.104C276.8 129.104 272.337 130.952 269.047 134.242C265.757 137.532 263.908 141.995 263.908 146.648C263.908 151.301 265.757 155.763 269.047 159.054C272.337 162.344 276.8 164.192 281.453 164.192H281.453C286.106 164.192 290.568 162.344 293.859 159.054C297.149 155.763 298.997 151.301 298.997 146.648C298.997 141.995 297.149 137.532 293.859 134.242C290.568 130.952 286.106 129.104 281.453 129.104Z" fill="#E6E6E6"/>
<path d="M499.273 370.931H347.413C347.221 370.931 347.036 370.854 346.9 370.718C346.763 370.582 346.687 370.397 346.687 370.204C346.687 370.011 346.763 369.827 346.9 369.69C347.036 369.554 347.221 369.478 347.413 369.478H499.273C499.466 369.478 499.651 369.554 499.787 369.69C499.923 369.827 500 370.011 500 370.204C500 370.397 499.923 370.582 499.787 370.718C499.651 370.854 499.466 370.931 499.273 370.931Z" fill="#CCCCCC"/>
</g>
<defs>
<clipPath id="clip0">
<rect width="500" height="370.931" fill="white"/>
</clipPath>
</defs>
</svg>
