<svg width="32" height="32" viewBox="0 0 32 32" fill="none" xmlns="http://www.w3.org/2000/svg">
<path d="M31.4615 21.4618C31.1029 21.1029 30.6667 20.9234 30.1541 20.9234H21.2307L18.6154 23.5387C17.8717 24.2565 17 24.6156 16 24.6156C15.0002 24.6156 14.1282 24.257 13.3846 23.5387L10.7885 20.9234H1.84613C1.33341 20.9234 0.897537 21.1031 0.538455 21.4618C0.17944 21.8207 0 22.2566 0 22.7697V28.9233C0 29.4362 0.17944 29.8721 0.538455 30.231C0.897469 30.5899 1.33334 30.7692 1.84613 30.7692H30.1541C30.6667 30.7692 31.1029 30.5899 31.4615 30.231C31.8207 29.8721 32 29.4362 32 28.9233V22.7697C32 22.2566 31.8207 21.8207 31.4615 21.4618ZM24.2503 27.9425C24.0064 28.1862 23.7179 28.3079 23.3845 28.3079C23.0512 28.3079 22.763 28.1862 22.5192 27.9425C22.2758 27.6989 22.154 27.4106 22.154 27.0774C22.154 26.7441 22.2758 26.4553 22.5192 26.2121C22.763 25.9682 23.0512 25.8463 23.3845 25.8463C23.7179 25.8463 24.0064 25.9682 24.2503 26.2121C24.4937 26.4552 24.6155 26.7441 24.6155 27.0774C24.6155 27.4105 24.4937 27.6989 24.2503 27.9425ZM29.1731 27.9425C28.9297 28.1862 28.6411 28.3079 28.3077 28.3079C27.9744 28.3079 27.686 28.1862 27.4423 27.9425C27.199 27.6989 27.0773 27.4106 27.0773 27.0774C27.0773 26.7441 27.199 26.4553 27.4423 26.2121C27.686 25.9682 27.9743 25.8463 28.3077 25.8463C28.641 25.8463 28.9296 25.9682 29.1731 26.2121C29.4167 26.4552 29.5386 26.7441 29.5386 27.0774C29.5386 27.4105 29.4169 27.6989 29.1731 27.9425Z" fill="#2EC5CE"/>
<path d="M15.1347 21.7887C15.3656 22.032 15.654 22.1538 16 22.1538C16.3463 22.1538 16.6344 22.032 16.8653 21.7887L25.4808 13.1731C25.8782 12.8014 25.9681 12.3526 25.75 11.8269C25.5325 11.3271 25.1541 11.0771 24.6155 11.0768H19.6923V2.46141C19.6923 2.12813 19.5703 1.83964 19.3271 1.59607C19.0833 1.35244 18.7949 1.23059 18.4618 1.23059H13.5382C13.2051 1.23059 12.9166 1.35244 12.6729 1.59607C12.4294 1.83964 12.3075 2.12806 12.3075 2.46141V11.0769H7.38446C6.84573 11.0769 6.46772 11.3271 6.24976 11.827C6.03192 12.3524 6.12157 12.8014 6.51912 13.1732L15.1347 21.7887Z" fill="#2EC5CE"/>
</svg>
