<svg width="36" height="36" viewBox="0 0 36 36" fill="none" xmlns="http://www.w3.org/2000/svg">
<path opacity="0.1" fill-rule="evenodd" clip-rule="evenodd" d="M0 18C0 8.05888 8.05888 0 18 0C27.9411 0 36 8.05888 36 18C36 27.9411 27.9411 36 18 36C8.05888 36 0 27.9411 0 18Z" fill="white"/>
<path fill-rule="evenodd" clip-rule="evenodd" d="M18.001 8.40002C15.3938 8.40002 15.0666 8.41142 14.0426 8.45803C13.0206 8.50483 12.323 8.66663 11.7126 8.90403C11.0812 9.14923 10.5456 9.47724 10.012 10.011C9.47796 10.5446 9.14995 11.0803 8.90395 11.7115C8.66595 12.3221 8.50395 13.0199 8.45795 14.0415C8.41215 15.0655 8.40015 15.3929 8.40015 18.0001C8.40015 20.6074 8.41175 20.9336 8.45815 21.9576C8.50515 22.9796 8.66695 23.6772 8.90415 24.2876C9.14955 24.919 9.47756 25.4546 10.0114 25.9882C10.5448 26.5222 11.0804 26.851 11.7114 27.0962C12.3222 27.3336 13.02 27.4954 14.0418 27.5422C15.0658 27.5888 15.3928 27.6002 17.9998 27.6002C20.6073 27.6002 20.9335 27.5888 21.9575 27.5422C22.9795 27.4954 23.6779 27.3336 24.2887 27.0962C24.9199 26.851 25.4547 26.5222 25.9881 25.9882C26.5221 25.4546 26.8501 24.919 27.0961 24.2878C27.3321 23.6772 27.4941 22.9794 27.5421 21.9578C27.5881 20.9338 27.6001 20.6074 27.6001 18.0001C27.6001 15.3929 27.5881 15.0657 27.5421 14.0417C27.4941 13.0197 27.3321 12.3221 27.0961 11.7117C26.8501 11.0803 26.5221 10.5446 25.9881 10.011C25.4541 9.47704 24.9201 9.14903 24.2881 8.90403C23.6761 8.66663 22.9781 8.50483 21.9561 8.45803C20.9321 8.41142 20.6061 8.40002 17.998 8.40002H18.001ZM17.1398 10.13C17.3954 10.1296 17.6806 10.13 18.001 10.13C20.5642 10.13 20.868 10.1392 21.8802 10.1852C22.8163 10.228 23.3243 10.3844 23.6627 10.5158C24.1107 10.6898 24.4301 10.8978 24.7659 11.2338C25.1019 11.5698 25.3099 11.8898 25.4843 12.3378C25.6157 12.6758 25.7723 13.1838 25.8149 14.1199C25.8609 15.1319 25.8709 15.4359 25.8709 17.9979C25.8709 20.5599 25.8609 20.8639 25.8149 21.8759C25.7721 22.8119 25.6157 23.32 25.4843 23.658C25.3103 24.106 25.1019 24.425 24.7659 24.7608C24.4299 25.0968 24.1109 25.3048 23.6627 25.4788C23.3247 25.6108 22.8163 25.7668 21.8802 25.8096C20.8682 25.8556 20.5642 25.8656 18.001 25.8656C15.4376 25.8656 15.1338 25.8556 14.1218 25.8096C13.1858 25.7664 12.6778 25.61 12.3391 25.4786C11.8911 25.3046 11.5711 25.0966 11.2351 24.7606C10.8991 24.4246 10.6911 24.1054 10.5167 23.6572C10.3853 23.3192 10.2287 22.8111 10.1861 21.8751C10.1401 20.8631 10.1309 20.5591 10.1309 17.9955C10.1309 15.4319 10.1401 15.1295 10.1861 14.1175C10.2289 13.1814 10.3853 12.6734 10.5167 12.335C10.6907 11.887 10.8991 11.567 11.2351 11.231C11.5711 10.895 11.8911 10.687 12.3391 10.5126C12.6775 10.3806 13.1858 10.2246 14.1218 10.1816C15.0074 10.1416 15.3506 10.1296 17.1398 10.1276V10.13ZM23.1255 11.724C22.4895 11.724 21.9735 12.2394 21.9735 12.8756C21.9735 13.5117 22.4895 14.0277 23.1255 14.0277C23.7615 14.0277 24.2775 13.5117 24.2775 12.8756C24.2775 12.2396 23.7615 11.724 23.1255 11.724ZM18.0011 13.07C15.2784 13.07 13.071 15.2775 13.071 18.0001C13.071 20.7227 15.2784 22.9291 18.0011 22.9291C20.7237 22.9291 22.9303 20.7227 22.9303 18.0001C22.9303 15.2775 20.7237 13.07 18.0011 13.07ZM18.001 14.8001C19.7682 14.8001 21.2011 16.2327 21.2011 18.0001C21.2011 19.7673 19.7682 21.2001 18.001 21.2001C16.2336 21.2001 14.801 19.7673 14.801 18.0001C14.801 16.2327 16.2336 14.8001 18.001 14.8001Z" fill="white"/>
</svg>
