<svg width="32" height="32" viewBox="0 0 32 32" fill="none" xmlns="http://www.w3.org/2000/svg">
<g clip-path="url(#clip0)">
<path d="M29.8034 2.19676C26.8744 -0.732242 22.1257 -0.732242 19.1967 2.1967L12.9284 8.46507C9.89868 11.4949 10.1792 16.3224 12.9284 19.0717C13.3887 19.5321 13.8981 19.9074 14.436 20.2158L15.5801 19.0717C16.3304 18.3212 16.0663 17.4439 16.0528 16.8108C15.8881 16.6941 15.7279 16.5679 15.5801 16.42C14.1692 15.0093 14.1058 12.5909 15.5801 11.1167C15.799 10.8978 21.7154 4.98132 21.8483 4.84844C23.3107 3.38601 25.6892 3.38601 27.1516 4.84844C28.614 6.31088 28.614 8.68932 27.1516 10.1518L23.0083 14.2951C23.1281 14.958 23.8472 16.5284 23.4773 19.1189C23.4954 19.1011 23.517 19.0897 23.535 19.0718L29.8034 12.8034C32.7322 9.87438 32.7322 5.12576 29.8034 2.19676Z" fill="#6C63FF"/>
<path d="M19.5573 12.4426C19.097 11.9822 18.5876 11.6068 18.0498 11.2985L16.9058 12.4426C16.1553 13.193 16.4194 14.0703 16.4329 14.7033C16.5977 14.8201 16.7579 14.9463 16.9058 15.0941C18.3166 16.505 18.38 18.9232 16.9058 20.3975C16.6863 20.6169 10.2798 27.0234 10.1517 27.1516C8.68922 28.614 6.31078 28.614 4.84834 27.1516C3.38591 25.6891 3.38591 23.3107 4.84834 21.8483L9.47753 17.2191C9.35772 16.5561 8.63859 14.9858 9.00853 12.3953C8.99047 12.413 8.96872 12.4246 8.95072 12.4425L2.19666 19.1967C-0.732219 22.1257 -0.732219 26.8743 2.19666 29.8033C5.12566 32.7322 9.87422 32.7322 12.8032 29.8033L19.5573 23.0492C22.5308 20.0757 22.3683 15.2535 19.5573 12.4426Z" fill="#2EC5CE"/>
</g>
<defs>
<clipPath id="clip0">
<rect width="32" height="32" fill="white"/>
</clipPath>
</defs>
</svg>
