<svg width="23" height="14" viewBox="0 0 23 14" fill="none" xmlns="http://www.w3.org/2000/svg">
<path d="M22.5 6.75C22.5 10.4538 19.4885 13.5 15.75 13.5C12.0462 13.5 9 10.4538 9 6.75C9 3.04615 12.0115 0 15.7154 0C19.4885 0 22.5 3.04615 22.5 6.75Z" fill="#F9B50B"/>
<path d="M13.4654 6.78462C13.4654 6.3 13.3962 5.81538 13.3269 5.36538H9.17308C9.20769 5.12308 9.27692 4.91538 9.34615 4.63846H13.05C12.9808 4.39615 12.8769 4.15385 12.7731 3.91154H9.62308C9.72692 3.66923 9.86538 3.46154 10.0038 3.18462H12.3923C12.2538 2.94231 12.0808 2.7 11.8731 2.45769H10.5577C10.7654 2.21538 10.9731 2.00769 11.25 1.76538C10.0731 0.657692 8.48077 0 6.71538 0C3.04615 0.103846 0 3.04615 0 6.75C0 10.4538 3.01154 13.5 6.75 13.5C8.51538 13.5 10.0731 12.8077 11.2846 11.7346C11.5269 11.5269 11.7346 11.2846 11.9769 11.0077H10.5923C10.4192 10.8 10.2462 10.5577 10.1077 10.3154H12.4615C12.6 10.1077 12.7385 9.86539 12.8423 9.58846H9.69231C9.58846 9.38077 9.48462 9.13846 9.41539 8.86154H13.1192C13.3269 8.23846 13.4654 7.54615 13.4654 6.78462Z" fill="#C8191C"/>
<path d="M9.13845 8.48077L9.2423 7.8577C9.20768 7.8577 9.13845 7.89231 9.06922 7.89231C8.82691 7.89231 8.7923 7.75385 8.82691 7.68462L9.03461 6.43846H9.41538L9.51922 5.74616H9.17307L9.2423 5.33077H8.51538C8.51538 5.33077 8.09999 7.68462 8.09999 7.96154C8.09999 8.37693 8.3423 8.58462 8.68845 8.58462C8.89614 8.58462 9.06922 8.51539 9.13845 8.48077Z" fill="white"/>
<path d="M9.38077 7.33846C9.38077 8.34231 10.0731 8.58462 10.6269 8.58462C11.1462 8.58462 11.3885 8.48077 11.3885 8.48077L11.5269 7.78846C11.5269 7.78846 11.1462 7.96154 10.7654 7.96154C9.96923 7.96154 10.1077 7.37308 10.1077 7.37308H11.5615C11.5615 7.37308 11.6654 6.92308 11.6654 6.71538C11.6654 6.26538 11.4231 5.67692 10.6269 5.67692C9.93461 5.64231 9.38077 6.43846 9.38077 7.33846ZM10.6269 6.3C11.0077 6.3 10.9385 6.75 10.9385 6.78462H10.1423C10.1769 6.75 10.2462 6.3 10.6269 6.3Z" fill="white"/>
<path d="M15.1615 8.48077L15.3 7.68462C15.3 7.68462 14.9538 7.8577 14.6769 7.8577C14.1923 7.8577 13.95 7.47693 13.95 7.02693C13.95 6.16154 14.3654 5.71154 14.8846 5.71154C15.2308 5.71154 15.5423 5.91923 15.5423 5.91923L15.6462 5.1577C15.6462 5.1577 15.2308 4.98462 14.8154 4.98462C13.9846 4.98462 13.1885 5.71154 13.1885 7.06154C13.1885 7.96154 13.6038 8.55 14.4692 8.55C14.7808 8.58462 15.1615 8.48077 15.1615 8.48077Z" fill="white"/>
<path d="M5.22692 5.6423C4.74231 5.6423 4.36154 5.78077 4.36154 5.78077L4.25769 6.40384C4.25769 6.40384 4.56923 6.26538 5.05385 6.26538C5.29615 6.26538 5.50385 6.3 5.50385 6.50769C5.50385 6.64615 5.46923 6.68077 5.46923 6.68077H5.15769C4.53461 6.68077 3.87692 6.92307 3.87692 7.75384C3.87692 8.41153 4.29231 8.55 4.56923 8.55C5.05385 8.55 5.29615 8.23846 5.33077 8.23846L5.29615 8.51538H5.88462L6.16154 6.5423C6.16154 5.67692 5.46923 5.6423 5.22692 5.6423ZM5.36538 7.23461C5.36538 7.33846 5.29615 7.92692 4.88077 7.92692C4.67308 7.92692 4.60385 7.75384 4.60385 7.65C4.60385 7.47692 4.70769 7.23461 5.26154 7.23461C5.33077 7.23461 5.36538 7.23461 5.36538 7.23461Z" fill="white"/>
<path d="M6.85385 8.55C7.02693 8.55 7.92693 8.58462 7.92693 7.61539C7.92693 6.71539 7.06154 6.88847 7.06154 6.54231C7.06154 6.36923 7.2 6.3 7.44231 6.3C7.54616 6.3 7.92693 6.33462 7.92693 6.33462L8.03077 5.67693C8.03077 5.67693 7.78846 5.6077 7.33846 5.6077C6.81923 5.6077 6.26539 5.81539 6.26539 6.54231C6.26539 7.37308 7.16539 7.30385 7.16539 7.61539C7.16539 7.82308 6.92308 7.8577 6.75 7.8577C6.43846 7.8577 6.09231 7.75385 6.09231 7.75385L5.98846 8.41154C6.0577 8.48077 6.26539 8.55 6.85385 8.55Z" fill="white"/>
<path d="M21.1154 5.08846L20.9769 6.05769C20.9769 6.05769 20.7 5.71154 20.2846 5.71154C19.6269 5.71154 19.0731 6.50769 19.0731 7.44231C19.0731 8.03077 19.35 8.61923 19.9731 8.61923C20.3885 8.61923 20.6654 8.34231 20.6654 8.34231L20.6308 8.58462H21.3577L21.8769 5.15769L21.1154 5.08846ZM20.7692 6.95769C20.7692 7.33846 20.5962 7.85769 20.1808 7.85769C19.9385 7.85769 19.8 7.65 19.8 7.26923C19.8 6.68077 20.0423 6.33462 20.3885 6.33462C20.6308 6.36923 20.7692 6.54231 20.7692 6.95769Z" fill="white"/>
<path d="M1.31539 8.51539L1.73077 5.95385L1.8 8.51539H2.28462L3.21923 5.95385L2.83846 8.51539H3.6L4.18846 5.08846H3.01154L2.28462 7.2L2.25 5.08846H1.21154L0.623077 8.51539H1.31539Z" fill="white"/>
<path d="M12.3923 8.51539C12.6 7.33846 12.6346 6.36923 13.1539 6.54231C13.2231 6.09231 13.3269 5.88462 13.3962 5.71154H13.2577C12.9462 5.71154 12.6692 6.12693 12.6692 6.12693L12.7385 5.74616H12.0462L11.5962 8.51539H12.3923V8.51539Z" fill="white"/>
<path d="M16.8231 5.6423C16.3385 5.6423 15.9577 5.78077 15.9577 5.78077L15.8539 6.40384C15.8539 6.40384 16.1654 6.26538 16.65 6.26538C16.8923 6.26538 17.1 6.3 17.1 6.50769C17.1 6.64615 17.0654 6.68077 17.0654 6.68077H16.7539C16.1308 6.68077 15.4731 6.92307 15.4731 7.75384C15.4731 8.41153 15.8885 8.55 16.1654 8.55C16.65 8.55 16.8923 8.23846 16.9269 8.23846L16.8923 8.51538H17.55L17.8269 6.5423C17.8269 5.67692 17.0654 5.6423 16.8231 5.6423ZM16.9962 7.23461C16.9962 7.33846 16.9269 7.92692 16.5115 7.92692C16.3039 7.92692 16.2346 7.75384 16.2346 7.65C16.2346 7.47692 16.3385 7.23461 16.8923 7.23461C16.9615 7.23461 16.9615 7.23461 16.9962 7.23461Z" fill="white"/>
<path d="M18.3808 8.51539C18.5885 7.33846 18.6231 6.36923 19.1423 6.54231C19.2115 6.09231 19.3154 5.88462 19.3846 5.71154H19.2461C18.9346 5.71154 18.6577 6.12693 18.6577 6.12693L18.7269 5.74616H18.0346L17.5846 8.51539H18.3808V8.51539Z" fill="white"/>
</svg>
