<svg width="32" height="32" viewBox="0 0 32 32" fill="none" xmlns="http://www.w3.org/2000/svg">
<path d="M28.454 15.1818C28.0296 14.7576 27.5147 14.5456 26.9083 14.5456H26.1815V10.1817C26.1815 7.39387 25.1818 5.00014 23.1817 3.00013C21.1818 1.00004 18.7883 0 16 0C13.2119 0 10.8179 1.00004 8.81815 3.00005C6.81806 5.00014 5.81833 7.39379 5.81833 10.1817V14.5456H5.09117C4.48531 14.5456 3.97005 14.7576 3.54577 15.1818C3.12148 15.6058 2.90942 16.1211 2.90942 16.7275V29.8183C2.90942 30.4241 3.12156 30.9395 3.54577 31.3639C3.97005 31.7878 4.48531 32 5.09117 32H26.9089C27.5152 32 28.0301 31.788 28.4545 31.3639C28.8784 30.9395 29.0909 30.4241 29.0909 29.8183V16.7272C29.0912 16.1213 28.8784 15.6061 28.454 15.1818ZM21.8181 14.5456H10.182V10.1817C10.182 8.57572 10.7503 7.20441 11.8866 6.06825C13.0231 4.93193 14.3941 4.36388 16.0003 4.36388C17.6066 4.36388 18.9773 4.93185 20.1139 6.06825C21.2499 7.20433 21.8181 8.57572 21.8181 10.1817V14.5456Z" fill="#2EC5CE"/>
</svg>
