<svg width="32" height="32" viewBox="0 0 32 32" fill="none" xmlns="http://www.w3.org/2000/svg">
<g clip-path="url(#clip0)">
<path d="M19.45 21.9748C19.45 21.8638 19.411 21.7527 19.3333 21.6416C18.711 20.8969 18.2112 20.258 17.8332 19.725C18.0666 19.2695 18.2444 18.8472 18.3663 18.4587L20.9497 18.0587C21.05 18.0474 21.1389 17.9892 21.2166 17.8839C21.2943 17.7779 21.3328 17.6698 21.3328 17.5587V14.4752C21.3328 14.3531 21.2943 14.2446 21.2166 14.1504C21.1389 14.0561 21.0444 13.9975 20.9333 13.9756L18.3998 13.5923C18.2773 13.2144 18.0886 12.7586 17.8331 12.2255C17.9995 11.9809 18.2498 11.6475 18.5832 11.2255C18.9165 10.8032 19.1502 10.5033 19.2832 10.3255C19.3611 10.2144 19.3999 10.1088 19.3999 10.0089C19.3999 9.70884 18.5998 8.81995 17.0002 7.34211C16.8892 7.25338 16.7725 7.20896 16.6498 7.20896C16.5168 7.20896 16.4057 7.24743 16.3164 7.32553L14.3497 8.80886C13.8943 8.57559 13.4776 8.40344 13.0998 8.292L12.7164 5.74215C12.7055 5.63106 12.6499 5.53369 12.5499 5.45044C12.4498 5.36714 12.3387 5.3254 12.2164 5.3254H9.11661C8.8611 5.3254 8.69444 5.45873 8.61668 5.72533C8.48324 6.23653 8.35557 7.09226 8.23333 8.292C7.75564 8.44752 7.32786 8.62533 6.95011 8.82533L5.03351 7.32547C4.92243 7.24754 4.80579 7.2089 4.68349 7.2089C4.47212 7.2089 4.0333 7.53662 3.36671 8.1923C2.7 8.84774 2.2442 9.34218 1.99996 9.67557C1.92208 9.76459 1.88338 9.87568 1.88338 10.009C1.88338 10.1089 1.92202 10.22 1.99996 10.3422C2.62207 11.0869 3.122 11.7257 3.49987 12.2588C3.2666 12.7146 3.0889 13.1366 2.96678 13.5255L0.383354 13.9252C0.28324 13.9363 0.19445 13.9946 0.116577 14.0999C0.0388783 14.2057 0 14.3139 0 14.4249V17.5083C0 17.6306 0.0388783 17.7388 0.116577 17.8331C0.19445 17.9278 0.288785 17.9805 0.400108 17.9915L2.93339 18.3915C3.06672 18.8135 3.26134 19.2693 3.51685 19.7581C3.33904 20.0028 3.07804 20.3418 2.73357 20.7749C2.38886 21.2085 2.16119 21.5029 2.05016 21.6583C1.9724 21.7694 1.93347 21.8753 1.93347 21.9748C1.93347 22.2752 2.73357 23.1638 4.33353 24.6418C4.44462 24.7305 4.56114 24.7746 4.68355 24.7746C4.82797 24.7746 4.93906 24.7361 5.01676 24.6581L6.98338 23.175C7.43877 23.4084 7.85546 23.5803 8.23339 23.6915L8.61674 26.2416C8.62772 26.3526 8.68341 26.4501 8.78329 26.5332C8.88328 26.6165 8.99437 26.6581 9.11667 26.6581H12.2164C12.4721 26.6581 12.6387 26.5249 12.7165 26.2582C12.8498 25.7358 12.9775 24.8748 13.0998 23.6747C13.5441 23.5419 13.9718 23.3691 14.383 23.1583L16.2997 24.6581C16.4108 24.7361 16.5274 24.7746 16.6497 24.7746C16.8609 24.7746 17.2972 24.4442 17.9582 23.7827C18.619 23.1221 19.0776 22.6244 19.3333 22.2912C19.411 22.2137 19.45 22.1083 19.45 21.9748ZM13.6831 19.0086C12.85 19.8417 11.8443 20.2583 10.6667 20.2583C9.4887 20.2583 8.48306 19.8416 7.64992 19.0086C6.81666 18.1752 6.39998 17.1695 6.39998 15.9918C6.39998 14.8141 6.81666 13.8085 7.64992 12.9752C8.48306 12.1419 9.48876 11.7253 10.6667 11.7253C11.8443 11.7253 12.85 12.1418 13.6831 12.9752C14.5166 13.8085 14.9331 14.8141 14.9331 15.9918C14.9331 17.1695 14.5166 18.1752 13.6831 19.0086Z" fill="#6C63FF"/>
<path d="M29.5166 22.8419C29.3723 22.5198 29.2055 22.231 29.0168 21.9752C29.5835 20.7195 29.8666 19.9527 29.8666 19.6751C29.8666 19.6312 29.8448 19.592 29.8 19.5587C28.4664 18.781 27.7777 18.392 27.7332 18.392L27.6334 18.4255C27.1779 18.8813 26.6665 19.5033 26.1001 20.2922C25.8779 20.2701 25.7115 20.2587 25.6004 20.2587C25.489 20.2587 25.3225 20.2701 25.1002 20.2922C24.9452 20.0587 24.656 19.6835 24.2338 19.1671C23.8117 18.6507 23.556 18.3921 23.4671 18.3921C23.4449 18.3921 23.2783 18.4809 22.967 18.6591C22.656 18.837 22.3282 19.0255 21.9837 19.2259C21.639 19.4263 21.445 19.5369 21.4004 19.5593C21.3557 19.5925 21.3337 19.6316 21.3337 19.6756C21.3337 19.9537 21.617 20.7198 22.1836 21.9757C21.995 22.2314 21.8281 22.5203 21.6837 22.8421C20.028 23.0085 19.2002 23.181 19.2002 23.3587V25.6919C19.2002 25.8697 20.028 26.0419 21.6837 26.2085C21.8168 26.5086 21.9836 26.7975 22.1836 27.0748C21.617 28.3306 21.3337 29.0973 21.3337 29.3749C21.3337 29.4193 21.3557 29.4584 21.4004 29.4916C22.7557 30.2805 23.4449 30.6749 23.4671 30.6749C23.5559 30.6749 23.8117 30.4138 24.2338 29.8915C24.6559 29.3692 24.9448 28.9918 25.1002 28.7585C25.3224 28.7802 25.489 28.7914 25.6004 28.7914C25.7115 28.7914 25.8779 28.7802 26.1001 28.7585C26.2553 28.9918 26.5444 29.3692 26.9665 29.8915C27.3886 30.4138 27.6441 30.6749 27.7332 30.6749C27.7554 30.6749 28.4447 30.2803 29.8 29.4916C29.8448 29.4584 29.8666 29.4195 29.8666 29.3749C29.8666 29.0972 29.5832 28.3305 29.0168 27.0748C29.2168 26.7975 29.3833 26.5086 29.5166 26.2085C31.1722 26.0419 32.0001 25.8697 32.0001 25.6919V23.3587C32.0001 23.1809 31.1722 23.0085 29.5166 22.8419ZM27.1081 26.0334C26.692 26.4502 26.189 26.6589 25.6 26.6589C25.0109 26.6589 24.5081 26.4502 24.0918 26.0334C23.675 25.6167 23.4664 25.1141 23.4664 24.5252C23.4664 23.9476 23.6778 23.4472 24.1001 23.0253C24.5222 22.6032 25.0223 22.392 25.6 22.392C26.1775 22.392 26.6779 22.603 27.1002 23.0253C27.5222 23.4472 27.7335 23.9476 27.7335 24.5252C27.7332 25.1141 27.525 25.6167 27.1081 26.0334Z" fill="#6C63FF"/>
<path d="M29.5166 5.77516C29.3723 5.45292 29.2055 5.16408 29.0168 4.90833C29.5835 3.65296 29.8666 2.88625 29.8666 2.6085C29.8666 2.56425 29.8448 2.5252 29.8 2.49181C28.4664 1.71407 27.7777 1.32523 27.7332 1.32523L27.6334 1.3585C27.1779 1.8143 26.6665 2.43635 26.1001 3.22518C25.8779 3.20312 25.7115 3.19191 25.6004 3.19191C25.489 3.19191 25.3225 3.20312 25.1002 3.22518C24.9452 2.99186 24.656 2.61691 24.2338 2.10028C23.8117 1.58354 23.556 1.32528 23.4671 1.32528C23.4449 1.32528 23.2783 1.41407 22.967 1.592C22.656 1.76999 22.3282 1.95878 21.9837 2.15883C21.639 2.35895 21.445 2.46998 21.4004 2.49204C21.3557 2.52537 21.3337 2.56425 21.3337 2.60874C21.3337 2.88649 21.617 3.65325 22.1836 4.90868C21.995 5.16437 21.8281 5.45316 21.6837 5.77539C20.028 5.94194 19.2002 6.11409 19.2002 6.2919V8.62524C19.2002 8.80294 20.028 8.97526 21.6837 9.14175C21.8168 9.44163 21.9836 9.73065 22.1836 10.0085C21.617 11.2641 21.3337 12.0305 21.3337 12.3084C21.3337 12.3526 21.3557 12.3917 21.4004 12.425C22.7557 13.2138 23.4449 13.6083 23.4671 13.6083C23.5559 13.6083 23.8117 13.3473 24.2338 12.825C24.6559 12.3027 24.9448 11.9251 25.1002 11.6917C25.3224 11.7137 25.489 11.725 25.6004 11.725C25.7115 11.725 25.8779 11.7137 26.1001 11.6917C26.2553 11.9251 26.5444 12.3026 26.9665 12.825C27.3886 13.3473 27.6441 13.6083 27.7332 13.6083C27.7554 13.6083 28.4447 13.2138 29.8 12.425C29.8448 12.3917 29.8666 12.3528 29.8666 12.3084C29.8666 12.0305 29.5832 11.2641 29.0168 10.0085C29.2168 9.73065 29.3833 9.4418 29.5166 9.14175C31.1722 8.9752 32.0001 8.80294 32.0001 8.62524V6.2919C32.0001 6.11409 31.1722 5.94188 29.5166 5.77516ZM27.1081 8.9668C26.692 9.38354 26.189 9.59189 25.6 9.59189C25.0109 9.59189 24.5081 9.38354 24.0918 8.9668C23.675 8.55029 23.4664 8.04744 23.4664 7.45854C23.4664 6.8808 23.6778 6.38069 24.1001 5.95846C24.5222 5.53623 25.0223 5.32508 25.6 5.32508C26.1775 5.32508 26.6779 5.53646 27.1002 5.95846C27.5222 6.38063 27.7335 6.8808 27.7335 7.45854C27.7332 8.04744 27.525 8.55029 27.1081 8.9668Z" fill="#6C63FF"/>
</g>
<defs>
<clipPath id="clip0">
<rect width="32" height="32" fill="white"/>
</clipPath>
</defs>
</svg>
