<svg width="36" height="36" viewBox="0 0 36 36" fill="none" xmlns="http://www.w3.org/2000/svg">
<path opacity="0.1" fill-rule="evenodd" clip-rule="evenodd" d="M0 18C0 8.05888 8.05888 0 18 0C27.9411 0 36 8.05888 36 18C36 27.9411 27.9411 36 18 36C8.05888 36 0 27.9411 0 18Z" fill="white"/>
<path fill-rule="evenodd" clip-rule="evenodd" d="M8.14778 18.0428C13.3951 15.7566 16.8942 14.2494 18.645 13.5212C23.6438 11.4421 24.6825 11.0809 25.3595 11.069C25.5084 11.0664 25.8413 11.1033 26.057 11.2782C26.2391 11.426 26.2892 11.6256 26.3132 11.7657C26.3371 11.9058 26.367 12.2249 26.3433 12.4743C26.0724 15.3205 24.9003 22.2276 24.304 25.4154C24.0516 26.7643 23.5548 27.2165 23.0738 27.2608C22.2461 27.337 21.576 26.8593 20.8303 26.3276C20.6343 26.1879 20.4331 26.0445 20.2224 25.9063C19.3954 25.3642 18.7562 24.929 18.1154 24.4926C17.5286 24.093 16.9404 23.6924 16.2054 23.208C14.6758 22.2001 15.3161 21.5828 16.1699 20.7598C16.3081 20.6265 16.4519 20.4879 16.5931 20.3413C16.656 20.2759 16.9641 19.9895 17.3984 19.5857L17.3986 19.5855L17.3986 19.5855C18.7922 18.29 21.4849 15.7866 21.5528 15.4969C21.564 15.4493 21.5743 15.2722 21.4691 15.1786C21.3638 15.0851 21.2085 15.1171 21.0964 15.1425C20.9375 15.1786 18.4067 16.8514 13.5039 20.1609C12.7855 20.6541 12.1349 20.8945 11.5519 20.8819C10.9092 20.868 9.67289 20.5185 8.75385 20.2198C8.61887 20.1759 8.48722 20.1345 8.36015 20.0945C7.42601 19.8008 6.74002 19.5851 6.80869 19.0373C6.84933 18.7132 7.29569 18.3817 8.14778 18.0428Z" fill="white"/>
</svg>
