<svg width="500" height="333" viewBox="0 0 500 333" fill="none" xmlns="http://www.w3.org/2000/svg">
<g clip-path="url(#clip0)">
<path d="M179.35 191.233C196.485 161.09 229.171 137.946 263.771 140.176C238.249 167.93 223.366 203.817 221.756 241.488C221.188 256.018 222.069 272.239 212.422 283.119C206.419 289.889 197.243 293.168 188.222 293.855C179.2 294.543 170.18 292.913 161.278 291.29L159.119 291.953C158.297 257.29 162.215 221.375 179.35 191.233Z" fill="#F0F0F0"/>
<path d="M263.823 140.901C238.236 153.219 216.419 173.79 203.026 198.878C200.13 204.302 197.665 210.057 196.59 216.141C195.514 222.227 196.265 228.022 198.344 233.803C200.245 239.088 202.801 244.274 203.384 249.929C203.998 255.89 201.805 261.463 197.857 265.887C193.027 271.299 186.54 274.653 180.082 277.712C172.912 281.108 165.411 284.523 160.332 290.862C159.717 291.63 158.561 290.631 159.175 289.864C168.011 278.834 183.135 276.761 193.623 267.876C198.517 263.73 202.191 258.085 201.959 251.469C201.757 245.685 199.125 240.334 197.155 235C195.085 229.398 194.054 223.766 194.796 217.794C195.555 211.685 197.8 205.822 200.544 200.348C206.733 188.002 215.202 176.668 224.905 166.87C236.055 155.607 249.05 146.335 263.328 139.455C264.212 139.03 264.701 140.479 263.823 140.901Z" fill="white"/>
<path d="M206.949 190.494C203.026 187.626 200.251 183.457 199.119 178.731C197.986 174.006 198.571 169.032 200.767 164.697C201.214 163.822 202.596 164.476 202.148 165.353C200.095 169.385 199.551 174.018 200.615 178.417C201.678 182.815 204.279 186.688 207.947 189.337C208.744 189.914 207.741 191.067 206.949 190.494Z" fill="white"/>
<path d="M197.028 231.25C206.857 229.814 215.783 224.726 222.027 217C222.645 216.235 223.801 217.234 223.184 217.999C216.671 226.026 207.371 231.302 197.14 232.774C196.164 232.914 196.058 231.389 197.028 231.25V231.25Z" fill="white"/>
<path d="M236.81 157.488C238.097 158.914 239.717 159.998 241.526 160.643C243.335 161.288 245.276 161.473 247.175 161.183C248.148 161.031 248.253 162.556 247.287 162.707C245.188 163.018 243.044 162.81 241.044 162.102C239.044 161.394 237.248 160.207 235.812 158.644C235.664 158.509 235.574 158.321 235.559 158.121C235.545 157.921 235.607 157.723 235.733 157.567C235.866 157.414 236.054 157.32 236.255 157.306C236.457 157.291 236.657 157.356 236.81 157.488Z" fill="white"/>
<path d="M332.615 235.264C332.011 235.376 331.406 235.488 330.795 235.612C322.671 237.162 314.686 239.369 306.919 242.212C306.315 242.423 305.706 242.645 305.109 242.872C286.469 249.921 269.301 260.369 254.475 273.685C248.581 278.99 243.098 284.735 238.075 290.871C231.139 299.346 224.293 309.086 215.229 314.612C214.289 315.199 213.315 315.727 212.31 316.194L160.095 294.536C160.001 294.427 159.902 294.33 159.807 294.221L157.683 293.451C157.92 293.117 158.173 292.775 158.41 292.44C158.546 292.246 158.695 292.056 158.831 291.861C158.926 291.733 159.021 291.605 159.1 291.484C159.131 291.441 159.163 291.398 159.189 291.367C159.268 291.246 159.353 291.142 159.426 291.033C160.835 289.118 162.26 287.209 163.7 285.307C163.705 285.296 163.705 285.296 163.722 285.288C174.734 270.825 187.05 257.154 201.05 245.787C201.472 245.445 201.897 245.091 202.342 244.759C208.681 239.67 215.426 235.108 222.508 231.118C226.393 228.946 230.386 226.972 234.47 225.203C245.033 220.653 256.246 217.794 267.698 216.729C290.527 214.609 313.779 219.814 331.288 234.155C331.736 234.522 332.173 234.885 332.615 235.264Z" fill="#F0F0F0"/>
<path d="M332.223 235.878C304.378 230.308 274.573 233.598 248.774 245.566C243.197 248.153 237.764 251.263 233.242 255.474C228.719 259.686 225.83 264.765 224.009 270.632C222.345 275.997 221.263 281.676 218.324 286.542C215.226 291.672 210.119 294.801 204.304 295.956C197.188 297.369 189.99 296.141 182.992 294.696C175.222 293.091 167.177 291.301 159.305 293.305C158.351 293.548 158.03 292.054 158.982 291.812C172.678 288.325 186.002 295.775 199.725 294.996C206.129 294.632 212.462 292.336 216.259 286.915C219.58 282.174 220.7 276.318 222.339 270.872C224.059 265.154 226.626 260.035 230.814 255.714C235.098 251.293 240.421 247.964 245.908 245.245C258.282 239.114 271.869 235.163 285.515 233.181C301.198 230.902 317.157 231.323 332.699 234.426C333.661 234.618 333.179 236.069 332.223 235.878V235.878Z" fill="white"/>
<path d="M256.955 241.233C255.55 236.581 255.844 231.582 257.785 227.127C259.726 222.672 263.187 219.052 267.55 216.914C268.435 216.484 269.144 217.839 268.258 218.269C264.191 220.253 260.968 223.625 259.169 227.777C257.37 231.929 257.114 236.587 258.448 240.911C258.737 241.851 257.242 242.168 256.955 241.233Z" fill="white"/>
<path d="M224.495 267.801C233.207 272.572 243.398 273.884 253.035 271.475C253.989 271.236 254.311 272.73 253.357 272.969C243.324 275.457 232.722 274.07 223.667 269.086C222.804 268.61 223.637 267.328 224.495 267.801Z" fill="white"/>
<path d="M300.669 232.858C300.838 234.771 301.479 236.613 302.535 238.217C303.591 239.821 305.029 241.137 306.72 242.048C307.588 242.513 306.754 243.794 305.891 243.333C304.028 242.317 302.442 240.861 301.271 239.092C300.1 237.322 299.381 235.293 299.175 233.181C299.139 232.983 299.18 232.779 299.288 232.611C299.397 232.442 299.566 232.321 299.761 232.273C299.959 232.231 300.165 232.269 300.335 232.379C300.505 232.488 300.625 232.661 300.669 232.858Z" fill="white"/>
<path d="M233.149 270.996C225.836 235.638 216.696 223.85 216.696 223.85L213.204 221.142L209.004 217.88L209.024 217.46L208.028 217.122L207.794 216.94L207.411 216.646L207.349 216.712L207.219 216.847L188.216 210.387L164.108 202.198L152.944 187.688C151.126 185.325 148.785 183.415 146.106 182.107C143.426 180.8 140.479 180.131 137.498 180.154L101.845 180.417C97.0238 180.453 92.3908 182.291 88.8564 185.569L65.4221 207.306L28.9069 224.746L28.8453 224.684L28.4618 224.958L22.8199 227.656L23.0527 228.867L19.5607 231.387C19.5607 231.387 10.42 242.356 3.10737 275.256C1.24712 283.627 0.331441 301.585 0.000928809 323.713C-0.0156728 324.833 0.190428 325.944 0.607243 326.983C1.02406 328.022 1.64327 328.968 2.42889 329.766C3.2145 330.563 4.15083 331.197 5.18344 331.629C6.21605 332.062 7.32434 332.284 8.44387 332.285H203.478V332.285H227.821C228.94 332.284 230.047 332.061 231.079 331.629C232.111 331.197 233.047 330.565 233.833 329.768C234.618 328.972 235.238 328.027 235.655 326.989C236.072 325.951 236.28 324.84 236.264 323.722C235.941 299.643 235.026 280.074 233.149 270.996Z" fill="#3F3D56"/>
<path d="M258.173 30.8348C250.585 30.8348 243.308 33.8491 237.942 39.2146C232.577 44.5801 229.562 51.8573 229.562 59.4453C229.562 67.0333 232.577 74.3105 237.942 79.676C243.308 85.0416 250.585 88.0559 258.173 88.0559H471.389C478.977 88.0559 486.255 85.0416 491.62 79.676C496.986 74.3105 500 67.0333 500 59.4453C500 51.8573 496.986 44.5801 491.62 39.2146C486.255 33.8491 478.977 30.8348 471.389 30.8348H258.173Z" fill="#E5E5E5"/>
<path d="M258.173 36.625C252.121 36.625 246.316 39.0293 242.036 43.3089C237.757 47.5886 235.353 53.393 235.353 59.4453C235.353 65.4977 237.757 71.3021 242.036 75.5817C246.316 79.8614 252.121 82.2656 258.173 82.2656H471.39C477.442 82.2656 483.246 79.8614 487.526 75.5817C491.806 71.3021 494.21 65.4977 494.21 59.4453C494.21 53.393 491.806 47.5886 487.526 43.3089C483.246 39.0293 477.442 36.625 471.39 36.625H258.173Z" fill="white"/>
<path d="M125.27 166.759C151.067 166.759 171.979 145.847 171.979 120.05C171.979 94.2535 151.067 73.3411 125.27 73.3411C99.4734 73.3411 78.561 94.2535 78.561 120.05C78.561 145.847 99.4734 166.759 125.27 166.759Z" fill="#9E616A"/>
<path d="M113.321 164.472C113.122 164.033 112.923 163.592 112.724 163.15C112.801 163.152 112.876 163.163 112.953 163.165L113.321 164.472Z" fill="#2F2E41"/>
<path d="M77.2619 75.4651C79.6243 73.5806 82.3854 71.8466 85.4059 71.9441C88.4262 72.0414 91.4891 74.7694 90.8634 77.7259C96.4113 67.9029 105.242 60.3478 115.805 56.3869C126.368 52.426 137.989 52.3123 148.628 56.0657C156.135 58.7143 163.497 64.0129 165.221 71.7843C165.664 73.7793 165.759 75.9667 167.004 77.5867C168.575 79.6292 171.58 80.0912 174.054 79.3727C174.079 79.3655 174.104 79.3582 174.128 79.3509C174.546 79.2081 174.997 79.1941 175.423 79.3106C175.849 79.4271 176.231 79.6687 176.518 80.0042C176.805 80.3398 176.985 80.7538 177.034 81.1927C177.084 81.6317 177 82.0753 176.795 82.4663L174.671 86.4277C177.348 87.0245 180.13 86.9653 182.78 86.2552C183.22 86.1398 183.686 86.1633 184.112 86.3227C184.538 86.482 184.905 86.7693 185.161 87.1452C185.418 87.5211 185.551 87.9672 185.544 88.4222C185.537 88.8772 185.39 89.3189 185.122 89.6866C178.118 99.3026 166.417 105.512 154.476 105.439C145.989 105.387 137.415 102.462 129.155 104.414C125.96 105.169 122.974 106.63 120.417 108.689C117.86 110.749 115.796 113.355 114.377 116.316C112.959 119.277 112.221 122.518 112.218 125.801C112.216 129.084 112.948 132.327 114.362 135.29C111.824 132.514 106.919 133.172 104.324 135.893C101.728 138.614 101.056 142.675 101.318 146.427C101.718 152.165 103.966 157.571 106.336 162.833C86.4662 162.208 67.6728 148.269 61.347 129.418C54.9946 110.487 61.6521 87.9175 77.2619 75.4651Z" fill="#2F2E41"/>
<path opacity="0.2" d="M45.9739 260.321L59.0747 331.6L66.9356 332.285L45.9739 260.321Z" fill="black"/>
<path opacity="0.2" d="M190.283 254.945L177.182 331.549L169.321 332.285L190.283 254.945Z" fill="black"/>
<path d="M88.4362 51.4763C85.9243 52.5252 83.3033 51.3756 82.204 48.7432C81.088 46.0705 82.1303 43.3573 84.6825 42.2916C87.2349 41.2258 89.8093 42.3781 90.9433 45.094C92.0604 47.769 91.0294 50.3935 88.4362 51.4763ZM83.6245 37.0308L81.6272 37.8648C81.1283 38.0707 80.5702 38.0818 80.0635 37.8959C79.5568 37.7101 79.1382 37.3408 78.8907 36.8611L78.792 36.6679C76.6429 32.7922 76.3969 28.0819 78.0645 22.6751C79.6093 17.8249 80.251 14.4138 78.9606 11.3235C77.4686 7.75061 74.2828 6.63138 70.2202 8.25271C68.6445 8.91066 68.1431 8.90017 66.9031 10.1303C66.6333 10.4011 66.3118 10.6148 65.9577 10.7587C65.6036 10.9026 65.2241 10.9737 64.842 10.9678C64.4725 10.9635 64.1077 10.8848 63.7693 10.7364C63.4309 10.588 63.1259 10.373 62.8723 10.1042C62.3839 9.58619 62.1103 8.90212 62.1067 8.19017C62.1031 7.47822 62.3698 6.79143 62.853 6.2685C64.9372 4.08673 67.4511 2.36067 70.2359 1.19924C78.9648 -2.44565 83.359 2.9355 85.3698 7.75113C87.3366 12.4614 86.2302 16.8317 84.4525 22.4917C82.9628 27.1948 83.0496 30.6797 84.7418 34.1448C84.864 34.4068 84.932 34.6907 84.9417 34.9796C84.9514 35.2685 84.9026 35.5564 84.7982 35.8259C84.6938 36.0955 84.5361 36.3412 84.3344 36.5482C84.1327 36.7553 83.8912 36.9194 83.6245 37.0308L83.6245 37.0308Z" fill="#6C63FF"/>
<path d="M305.27 73.0906H262.847C262.713 73.0915 262.579 73.0658 262.454 73.0149C262.329 72.9639 262.216 72.8888 262.12 72.7938C262.025 72.6988 261.949 72.5859 261.897 72.4615C261.845 72.337 261.819 72.2036 261.819 72.0688C261.819 71.934 261.845 71.8006 261.897 71.6762C261.949 71.5518 262.025 71.4388 262.12 71.3438C262.216 71.2489 262.329 71.1737 262.454 71.1228C262.579 71.0719 262.713 71.0461 262.847 71.047H305.27C305.539 71.0489 305.798 71.1573 305.988 71.3487C306.178 71.5402 306.284 71.799 306.284 72.0688C306.284 72.3386 306.178 72.5975 305.988 72.7889C305.798 72.9803 305.539 73.0888 305.27 73.0906Z" fill="#6C63FF"/>
<path d="M359.085 73.4311H316.663C316.528 73.4321 316.394 73.4063 316.269 73.3554C316.145 73.3044 316.031 73.2293 315.936 73.1343C315.84 73.0394 315.764 72.9264 315.712 72.802C315.66 72.6776 315.634 72.5441 315.634 72.4093C315.634 72.2746 315.66 72.1411 315.712 72.0167C315.764 71.8923 315.84 71.7793 315.936 71.6843C316.031 71.5894 316.145 71.5143 316.269 71.4633C316.394 71.4124 316.528 71.3866 316.663 71.3875H359.085C359.22 71.3866 359.353 71.4124 359.478 71.4633C359.603 71.5143 359.716 71.5894 359.812 71.6843C359.907 71.7793 359.983 71.8923 360.035 72.0167C360.087 72.1411 360.114 72.2746 360.114 72.4093C360.114 72.5441 360.087 72.6776 360.035 72.802C359.983 72.9264 359.907 73.0394 359.812 73.1343C359.716 73.2293 359.603 73.3044 359.478 73.3554C359.353 73.4063 359.22 73.4321 359.085 73.4311Z" fill="#6C63FF"/>
<path d="M412.9 73.7718H370.478C370.208 73.7699 369.95 73.6615 369.759 73.47C369.569 73.2786 369.463 73.0198 369.463 72.75C369.463 72.4802 369.569 72.2213 369.759 72.0299C369.95 71.8385 370.208 71.73 370.478 71.7282H412.9C413.034 71.7273 413.168 71.753 413.293 71.804C413.418 71.8549 413.531 71.93 413.627 72.025C413.722 72.12 413.798 72.2329 413.85 72.3573C413.902 72.4818 413.928 72.6152 413.928 72.75C413.928 72.8847 413.902 73.0182 413.85 73.1426C413.798 73.267 413.722 73.38 413.627 73.475C413.531 73.5699 413.418 73.6451 413.293 73.696C413.168 73.7469 413.034 73.7727 412.9 73.7718H412.9Z" fill="#6C63FF"/>
<path d="M466.715 74.1124H424.293C424.023 74.1106 423.765 74.0021 423.575 73.8107C423.385 73.6192 423.278 73.3604 423.278 73.0906C423.278 72.8208 423.385 72.5619 423.575 72.3705C423.765 72.1791 424.023 72.0706 424.293 72.0688H466.715C466.985 72.0706 467.243 72.1791 467.433 72.3705C467.623 72.5619 467.73 72.8208 467.73 73.0906C467.73 73.3604 467.623 73.6192 467.433 73.8107C467.243 74.0021 466.985 74.1106 466.715 74.1124Z" fill="#6C63FF"/>
<path d="M283.965 63.6868C288.32 63.6868 291.85 60.1568 291.85 55.8023C291.85 51.4478 288.32 47.9178 283.965 47.9178C279.611 47.9178 276.081 51.4478 276.081 55.8023C276.081 60.1568 279.611 63.6868 283.965 63.6868Z" fill="#6C63FF"/>
<path d="M338.105 63.6868C342.46 63.6868 345.99 60.1568 345.99 55.8023C345.99 51.4478 342.46 47.9178 338.105 47.9178C333.751 47.9178 330.221 51.4478 330.221 55.8023C330.221 60.1568 333.751 63.6868 338.105 63.6868Z" fill="#6C63FF"/>
<path d="M392.245 63.6868C396.6 63.6868 400.13 60.1568 400.13 55.8023C400.13 51.4478 396.6 47.9178 392.245 47.9178C387.891 47.9178 384.361 51.4478 384.361 55.8023C384.361 60.1568 387.891 63.6868 392.245 63.6868Z" fill="#6C63FF"/>
<path d="M446.385 63.6868C450.74 63.6868 454.27 60.1568 454.27 55.8023C454.27 51.4478 450.74 47.9178 446.385 47.9178C442.031 47.9178 438.501 51.4478 438.501 55.8023C438.501 60.1568 442.031 63.6868 446.385 63.6868Z" fill="#6C63FF"/>
</g>
<defs>
<clipPath id="clip0">
<rect width="500" height="332.285" fill="white"/>
</clipPath>
</defs>
</svg>
