<svg width="44" height="14" viewBox="0 0 44 14" fill="none" xmlns="http://www.w3.org/2000/svg">
<path d="M41.0143 0.192856H38.25C37.4143 0.192856 36.7714 0.449999 36.3857 1.28571L31.1143 13.3071H34.8429C34.8429 13.3071 35.4857 11.7 35.6143 11.3143C36 11.3143 39.6643 11.3143 40.1786 11.3143C40.3071 11.7643 40.6286 13.2429 40.6286 13.2429H43.9714L41.0143 0.192856ZM36.6429 8.61428C36.9643 7.84286 38.0571 4.95 38.0571 4.95C38.0571 5.01428 38.3786 4.17857 38.5071 3.72857L38.7643 4.88571C38.7643 4.88571 39.4714 8.03571 39.6 8.67857H36.6429V8.61428Z" fill="#3362AB"/>
<path d="M31.3714 9C31.3714 11.7 28.9286 13.5 25.1357 13.5C23.5286 13.5 21.9857 13.1786 21.15 12.7929L21.6643 9.83571L22.1143 10.0286C23.2714 10.5429 24.0428 10.7357 25.4571 10.7357C26.4857 10.7357 27.5786 10.35 27.5786 9.45C27.5786 8.87143 27.1286 8.48571 25.7143 7.84286C24.3643 7.2 22.5643 6.17143 22.5643 4.30714C22.5643 1.73571 25.0714 0 28.6071 0C29.9571 0 31.1143 0.257143 31.8214 0.578571L31.3071 3.40714L31.05 3.15C30.4071 2.89286 29.5714 2.63571 28.35 2.63571C27 2.7 26.3571 3.27857 26.3571 3.79286C26.3571 4.37143 27.1286 4.82143 28.35 5.4C30.4071 6.36429 31.3714 7.45714 31.3714 9Z" fill="#3362AB"/>
<path d="M0 0.321428L0.0642857 0.0642853H5.59286C6.36429 0.0642853 6.94286 0.321428 7.13571 1.15714L8.35714 6.94286C7.13571 3.85714 4.30714 1.35 0 0.321428Z" fill="#F9B50B"/>
<path d="M16.1357 0.192856L10.5429 13.2429H6.75001L3.53572 2.31428C5.85001 3.79286 7.77858 6.10714 8.48572 7.71428L8.87144 9.06428L12.3429 0.128571H16.1357V0.192856Z" fill="#3362AB"/>
<path d="M17.6143 0.128571H21.15L18.9 13.2429H15.3643L17.6143 0.128571Z" fill="#3362AB"/>
</svg>
