<svg width="605" height="396" viewBox="0 0 605 396" fill="none" xmlns="http://www.w3.org/2000/svg">
<g clip-path="url(#clip0)">
<path d="M588.621 395.125L589.518 395.108C589.171 385.139 588.106 375.207 586.333 365.391C582.453 344.374 576.002 330.571 567.158 324.365L566.643 325.099C587.302 339.595 588.61 394.572 588.621 395.125Z" fill="#F1F1F1"/>
<path d="M577.406 394.911L578.303 394.893C578.284 393.9 577.723 370.499 568.504 364.031L567.989 364.765C576.836 370.972 577.401 394.672 577.406 394.911Z" fill="#F1F1F1"/>
<path d="M561.539 325.181C564.017 325.181 566.025 323.173 566.025 320.698C566.025 318.222 564.017 316.214 561.539 316.214C559.062 316.214 557.053 318.222 557.053 320.698C557.053 323.173 559.062 325.181 561.539 325.181Z" fill="#F1F1F1"/>
<path d="M563.761 363.735C566.238 363.735 568.247 361.728 568.247 359.252C568.247 356.776 566.238 354.769 563.761 354.769C561.283 354.769 559.275 356.776 559.275 359.252C559.275 361.728 561.283 363.735 563.761 363.735Z" fill="#F1F1F1"/>
<path d="M579.497 327.868C579.047 331.326 579.514 334.842 580.851 338.063C583.186 335.455 584.717 332.227 585.258 328.77C585.8 325.312 585.33 321.771 583.904 318.575C581.646 321.233 580.126 324.438 579.497 327.868Z" fill="#F1F1F1"/>
<path d="M564.833 340.938C568.162 341.983 571.708 342.136 575.115 341.381C572.951 338.629 570.038 336.561 566.726 335.425C563.413 334.29 559.843 334.136 556.444 334.981C558.671 337.667 561.563 339.721 564.833 340.938Z" fill="#F1F1F1"/>
<path d="M564.668 375.081C567.001 375.814 569.486 375.921 571.874 375.392C570.358 373.463 568.316 372.013 565.994 371.217C563.672 370.422 561.17 370.314 558.788 370.906C560.348 372.789 562.376 374.228 564.668 375.081Z" fill="#F1F1F1"/>
<path d="M206.569 395.125L205.266 395.1C205.77 380.63 207.315 366.215 209.889 351.967C215.52 321.461 224.884 301.427 237.72 292.42L238.468 293.485C208.483 314.525 206.584 394.321 206.569 395.125Z" fill="#F1F1F1"/>
<path d="M222.847 394.814L221.544 394.789C221.572 393.347 222.386 359.381 235.767 349.993L236.514 351.058C223.674 360.067 222.853 394.468 222.847 394.814Z" fill="#F1F1F1"/>
<path d="M245.876 293.603C249.472 293.603 252.387 290.69 252.387 287.096C252.387 283.502 249.472 280.589 245.876 280.589C242.28 280.589 239.365 283.502 239.365 287.096C239.365 290.69 242.28 293.603 245.876 293.603Z" fill="#F1F1F1"/>
<path d="M242.652 349.563C246.248 349.563 249.163 346.65 249.163 343.056C249.163 339.463 246.248 336.549 242.652 336.549C239.056 336.549 236.141 339.463 236.141 343.056C236.141 346.65 239.056 349.563 242.652 349.563Z" fill="#F1F1F1"/>
<path d="M219.811 297.504C220.464 302.523 219.786 307.626 217.846 312.301C214.457 308.515 212.235 303.831 211.449 298.812C210.663 293.793 211.345 288.655 213.414 284.015C216.692 287.874 218.898 292.525 219.811 297.504Z" fill="#F1F1F1"/>
<path d="M241.095 316.474C236.263 317.991 231.117 318.213 226.172 317.118C229.312 313.123 233.541 310.121 238.349 308.473C243.157 306.824 248.339 306.601 253.271 307.829C250.04 311.726 245.841 314.707 241.095 316.474Z" fill="#F1F1F1"/>
<path d="M241.335 366.032C237.948 367.096 234.341 367.251 230.875 366.484C233.076 363.684 236.04 361.579 239.41 360.424C242.78 359.269 246.413 359.112 249.87 359.973C247.605 362.705 244.662 364.794 241.335 366.032Z" fill="#F1F1F1"/>
<path d="M105.969 118.02L102.836 98.8651L93.9903 96.6549C93.9903 96.6549 86.9694 94.4938 85.3284 108.626C83.6874 122.759 84.9596 149.146 84.9596 149.146L65.5375 210.611C64.0462 211.319 62.7907 212.442 61.9213 213.845C61.052 215.247 60.6056 216.871 60.6357 218.521C60.6658 220.171 61.171 221.777 62.0908 223.147C63.0107 224.518 64.3063 225.594 65.8225 226.248C67.3386 226.901 69.0111 227.104 70.6398 226.832C72.2684 226.561 73.7842 225.826 75.0056 224.715C76.227 223.605 77.1023 222.166 77.5267 220.571C77.9512 218.977 77.9067 217.293 77.3987 215.723L102.652 157.987L105.969 118.02Z" fill="#FFB7B7"/>
<path d="M159.763 102.946L155.118 84.1005L162.386 78.5967C162.386 78.5967 167.994 73.8542 175.055 86.2081C182.117 98.562 191.314 123.329 191.314 123.329L233.325 172.236C234.975 172.303 236.571 172.843 237.922 173.792C239.273 174.741 240.321 176.059 240.942 177.588C241.562 179.117 241.729 180.793 241.421 182.414C241.113 184.035 240.345 185.534 239.207 186.73C238.069 187.926 236.611 188.769 235.006 189.158C233.402 189.547 231.719 189.465 230.159 188.923C228.6 188.381 227.229 187.402 226.213 186.102C225.196 184.802 224.575 183.236 224.426 181.593L178.516 138.402L159.763 102.946Z" fill="#FFB7B7"/>
<path d="M196.068 385.088L206.602 385.088L211.615 344.479L196.065 344.48L196.068 385.088Z" fill="#FFB7B7"/>
<path d="M193.38 381.651L214.127 381.65H214.128C217.635 381.65 220.997 383.042 223.477 385.52C225.956 387.998 227.35 391.359 227.35 394.863V395.292L193.381 395.294L193.38 381.651Z" fill="#2F2E41"/>
<path d="M63.7344 385.088L74.2691 385.088L79.2813 344.479L63.7322 344.48L63.7344 385.088Z" fill="#FFB7B7"/>
<path d="M61.0471 381.651L81.7942 381.65H81.7951C85.3016 381.65 88.6644 383.042 91.1439 385.52C93.6234 387.998 95.0165 391.359 95.0167 394.863V395.292L61.0477 395.294L61.0471 381.651Z" fill="#2F2E41"/>
<path d="M128.346 66.8538C144.083 66.8538 156.84 54.105 156.84 38.3785C156.84 22.6521 144.083 9.90332 128.346 9.90332C112.61 9.90332 99.853 22.6521 99.853 38.3785C99.853 54.105 112.61 66.8538 128.346 66.8538Z" fill="#2F2E41"/>
<path d="M106.106 23.0252C110.71 18.4237 111.643 11.8958 108.19 8.44471C104.737 4.99359 98.2047 5.92614 93.6002 10.5276C88.9958 15.1291 88.0627 21.6571 91.516 25.1082C94.9693 28.5593 101.501 27.6267 106.106 23.0252Z" fill="#2F2E41"/>
<path d="M158.044 13.9828C159.963 9.49448 156.664 3.78371 150.675 1.2274C144.687 -1.32891 138.278 0.237263 136.359 4.72554C134.441 9.21382 137.74 14.9246 143.728 17.4809C149.716 20.0372 156.126 18.471 158.044 13.9828Z" fill="#2F2E41"/>
<path d="M150.469 56.7679C156.875 45.0567 152.568 30.373 140.849 23.9711C129.131 17.5691 114.438 21.8732 108.032 33.5844C101.625 45.2957 105.932 59.9794 117.651 66.3813C129.37 72.7833 144.063 68.4792 150.469 56.7679Z" fill="#FFB7B7"/>
<path d="M103.84 29.9753C109.366 33.7816 115.925 35.8072 122.636 35.7804C120.242 37.4393 117.517 38.5598 114.648 39.0648C123.571 40.9777 132.793 41.0294 141.737 39.2169C143.726 38.8983 145.644 38.2399 147.408 37.2705C148.288 36.7797 149.054 36.1096 149.657 35.3036C150.26 34.4975 150.686 33.5737 150.909 32.5921C151.503 29.199 148.857 26.1162 146.108 24.0386C141.898 20.9062 137.045 18.748 131.898 17.7203C126.752 16.6925 121.441 16.8208 116.35 18.0959C113.026 18.9546 109.696 20.4055 107.536 23.0734C105.377 25.7413 104.738 29.8542 106.795 32.6014L103.84 29.9753Z" fill="#2F2E41"/>
<path d="M117.131 76.6023L93.1962 96.1366L114.109 145.969L114.508 153.942C114.508 153.942 92.7985 173.946 79.366 229.825C65.9335 285.704 38.8035 359.955 38.8035 359.955L93.0782 373.224L130.814 246.819L178.919 345.987L185.762 375.319L227.717 363.679L211.525 284.965L171.811 162.781L175.073 129.027C175.073 129.027 182.34 112.179 169.715 94.3411L165.755 77.5802L145.256 74.0884L117.131 76.6023Z" fill="#2F2E41"/>
<path d="M519.608 253.944H353.437C352.11 253.943 350.837 253.415 349.899 252.478C348.961 251.54 348.433 250.269 348.431 248.942V192.921C348.433 191.594 348.961 190.323 349.899 189.385C350.837 188.448 352.11 187.92 353.437 187.919H519.608C520.935 187.92 522.207 188.448 523.145 189.385C524.083 190.323 524.611 191.594 524.613 192.921V248.942C524.611 250.269 524.083 251.54 523.145 252.478C522.207 253.415 520.935 253.943 519.608 253.944Z" fill="#E5E5E5"/>
<path d="M418.503 202.925H374.458V207.927H418.503V202.925Z" fill="white"/>
<path d="M476.563 208.927C478.222 208.927 479.566 207.583 479.566 205.926C479.566 204.268 478.222 202.925 476.563 202.925C474.905 202.925 473.56 204.268 473.56 205.926C473.56 207.583 474.905 208.927 476.563 208.927Z" fill="#6C63FF"/>
<path d="M486.574 208.927C488.232 208.927 489.577 207.583 489.577 205.926C489.577 204.268 488.232 202.925 486.574 202.925C484.915 202.925 483.571 204.268 483.571 205.926C483.571 207.583 484.915 208.927 486.574 208.927Z" fill="#6C63FF"/>
<path d="M496.584 208.927C498.242 208.927 499.587 207.583 499.587 205.926C499.587 204.268 498.242 202.925 496.584 202.925C494.925 202.925 493.581 204.268 493.581 205.926C493.581 207.583 494.925 208.927 496.584 208.927Z" fill="#6C63FF"/>
<path d="M519.608 324.972H353.437C352.11 324.971 350.837 324.443 349.899 323.506C348.961 322.568 348.433 321.296 348.431 319.97V263.948C348.433 262.622 348.961 261.351 349.899 260.413C350.837 259.475 352.11 258.948 353.437 258.946H519.608C520.935 258.948 522.207 259.475 523.145 260.413C524.083 261.351 524.611 262.622 524.613 263.948V319.97C524.611 321.296 524.083 322.568 523.145 323.506C522.207 324.443 520.935 324.971 519.608 324.972Z" fill="#E5E5E5"/>
<path d="M418.503 273.952H374.458V278.954H418.503V273.952Z" fill="white"/>
<path d="M476.563 279.955C478.222 279.955 479.566 278.611 479.566 276.953C479.566 275.296 478.222 273.952 476.563 273.952C474.905 273.952 473.56 275.296 473.56 276.953C473.56 278.611 474.905 279.955 476.563 279.955Z" fill="#6C63FF"/>
<path d="M486.574 279.955C488.232 279.955 489.577 278.611 489.577 276.953C489.577 275.296 488.232 273.952 486.574 273.952C484.915 273.952 483.571 275.296 483.571 276.953C483.571 278.611 484.915 279.955 486.574 279.955Z" fill="#6C63FF"/>
<path d="M496.584 279.955C498.242 279.955 499.587 278.611 499.587 276.953C499.587 275.296 498.242 273.952 496.584 273.952C494.925 273.952 493.581 275.296 493.581 276.953C493.581 278.611 494.925 279.955 496.584 279.955Z" fill="#6C63FF"/>
<path d="M519.608 396H353.437C352.11 395.998 350.837 395.471 349.899 394.533C348.961 393.596 348.433 392.324 348.431 390.998V334.976C348.433 333.65 348.961 332.379 349.899 331.441C350.837 330.503 352.11 329.976 353.437 329.974H519.608C520.935 329.976 522.207 330.503 523.145 331.441C524.083 332.379 524.611 333.65 524.613 334.976V390.998C524.611 392.324 524.083 393.596 523.145 394.533C522.207 395.471 520.935 395.998 519.608 396Z" fill="#E5E5E5"/>
<path d="M418.503 344.98H374.458V349.982H418.503V344.98Z" fill="white"/>
<path d="M476.563 350.982C478.222 350.982 479.566 349.639 479.566 347.981C479.566 346.324 478.222 344.98 476.563 344.98C474.905 344.98 473.56 346.324 473.56 347.981C473.56 349.639 474.905 350.982 476.563 350.982Z" fill="#6C63FF"/>
<path d="M486.574 350.982C488.232 350.982 489.577 349.639 489.577 347.981C489.577 346.324 488.232 344.98 486.574 344.98C484.915 344.98 483.571 346.324 483.571 347.981C483.571 349.639 484.915 350.982 486.574 350.982Z" fill="#6C63FF"/>
<path d="M496.584 350.982C498.242 350.982 499.587 349.639 499.587 347.981C499.587 346.324 498.242 344.98 496.584 344.98C494.925 344.98 493.581 346.324 493.581 347.981C493.581 349.639 494.925 350.982 496.584 350.982Z" fill="#6C63FF"/>
<path d="M320.203 275.205C317.038 275.195 313.887 274.788 310.823 273.993L310.22 273.826L309.66 273.545C289.409 263.399 272.325 249.997 258.882 233.711C247.754 220.151 239.077 204.754 233.244 188.214C226.267 168.412 222.911 147.517 223.335 126.528C223.344 126.087 223.351 125.747 223.351 125.512C223.351 115.309 229.018 106.357 237.789 102.705C244.501 99.9094 305.448 74.8921 309.852 73.0845C318.145 68.9318 326.992 72.3979 328.408 73.004C331.584 74.3016 387.925 97.3313 400.101 103.125C412.649 109.097 415.997 119.824 415.997 125.221C415.997 149.656 411.762 172.492 403.411 193.095C396.666 209.772 387.107 225.168 375.149 238.612C352.079 264.558 329.002 273.756 328.779 273.837C326.021 274.785 323.119 275.248 320.203 275.205ZM314.776 261.771C316.777 262.22 321.383 262.892 324.385 261.798C328.199 260.408 347.514 250.398 365.563 230.099C390.501 202.054 403.154 166.798 403.173 125.311C403.128 124.471 402.531 118.476 394.587 114.696C382.648 109.014 324.086 85.0834 323.496 84.8422L323.334 84.7736C322.106 84.2596 318.201 83.1771 315.508 84.587L314.969 84.8382C314.316 85.1061 249.621 111.661 242.721 114.534C237.894 116.544 236.174 121.523 236.174 125.512C236.174 125.804 236.167 126.228 236.156 126.776C235.605 155.163 242.178 225.014 314.776 261.771Z" fill="#3F3D56"/>
<path d="M312.533 78.9108C312.533 78.9108 247.249 105.707 240.255 108.619C233.26 111.532 229.763 118.522 229.763 125.512C229.763 132.503 224.517 223.716 312.533 267.817C312.533 267.817 320.522 270.026 326.582 267.817C332.643 265.608 409.585 228.327 409.585 125.221C409.585 125.221 409.585 114.736 397.344 108.91C385.103 103.085 325.921 78.9108 325.921 78.9108C325.921 78.9108 318.654 75.7069 312.533 78.9108Z" fill="#6C63FF"/>
<path opacity="0.2" d="M319.528 99.8816V242.828C319.528 242.828 385.395 211.143 384.812 127.843L319.528 99.8816Z" fill="black"/>
<path d="M604.268 396H0.732446C0.538189 396 0.351888 395.923 0.214528 395.786C0.0771676 395.648 0 395.462 0 395.268C0 395.074 0.0771676 394.888 0.214528 394.75C0.351888 394.613 0.538189 394.536 0.732446 394.536H604.268C604.462 394.536 604.648 394.613 604.785 394.75C604.923 394.888 605 395.074 605 395.268C605 395.462 604.923 395.648 604.785 395.786C604.648 395.923 604.462 396 604.268 396Z" fill="#CBCBCB"/>
</g>
<defs>
<clipPath id="clip0">
<rect width="605" height="396" fill="white"/>
</clipPath>
</defs>
</svg>
