<svg width="500" height="433" viewBox="0 0 500 433" fill="none" xmlns="http://www.w3.org/2000/svg">
<g clip-path="url(#clip0)">
<path d="M468.485 133.807C467.527 59.6474 429.695 0 383.159 0C355.194 0 330.37 21.5413 314.804 54.8277L333.106 100.749L307.812 72.4445C301.432 91.5966 297.811 113.462 297.811 136.685C297.759 154.288 299.927 171.827 304.263 188.887L353.312 180.98L309.416 205.525C323.716 244.731 349.854 271.508 379.982 273.275L374.175 431.233L392.143 431.874L388.303 273.116C431.204 269.031 465.57 214.199 468.323 145.579L438.676 129.001L468.485 133.807Z" fill="#F0F0F0"/>
<path d="M106.019 228.942H101.754V260.759H106.019V228.942Z" fill="#6C63FF"/>
<path d="M121.328 243.072L118.204 245.981L103.891 230.579L89.5724 245.981L86.449 243.072L103.891 224.317L121.328 243.072Z" fill="#6C63FF"/>
<path d="M102.705 276.751C95.9577 276.751 89.3616 274.75 83.7512 271.001C78.1408 267.252 73.768 261.924 71.1858 255.69C68.6036 249.456 67.928 242.597 69.2444 235.979C70.5608 229.361 73.8101 223.282 78.5813 218.511C83.3526 213.739 89.4315 210.49 96.0495 209.174C102.667 207.857 109.527 208.533 115.761 211.115C121.995 213.697 127.323 218.07 131.072 223.68C134.821 229.291 136.822 235.887 136.822 242.634C136.811 251.68 133.214 260.351 126.818 266.747C120.422 273.143 111.75 276.741 102.705 276.751ZM102.705 212.783C96.8011 212.783 91.0296 214.533 86.1204 217.814C81.2113 221.094 77.3852 225.756 75.1258 231.211C72.8663 236.665 72.2752 242.668 73.427 248.458C74.5788 254.249 77.422 259.568 81.5968 263.743C85.7717 267.918 91.0907 270.761 96.8814 271.913C102.672 273.064 108.674 272.473 114.129 270.214C119.584 267.954 124.246 264.128 127.526 259.219C130.806 254.31 132.557 248.539 132.557 242.634C132.548 234.72 129.4 227.132 123.804 221.536C118.207 215.939 110.62 212.792 102.705 212.783Z" fill="#6C63FF"/>
<path d="M139.788 164.038H137.437V181.581H139.788V164.038Z" fill="#E4E4E4"/>
<path d="M148.229 171.829L146.507 173.433L138.615 164.941L130.721 173.433L128.999 171.829L138.615 161.488L148.229 171.829Z" fill="#E4E4E4"/>
<path d="M137.961 190.398C134.241 190.398 130.604 189.295 127.511 187.228C124.418 185.161 122.007 182.223 120.583 178.786C119.16 175.349 118.787 171.567 119.513 167.918C120.239 164.269 122.03 160.918 124.661 158.287C127.291 155.656 130.643 153.865 134.292 153.139C137.941 152.413 141.723 152.786 145.16 154.21C148.597 155.633 151.535 158.044 153.601 161.137C155.668 164.231 156.772 167.868 156.772 171.588C156.766 176.575 154.782 181.356 151.256 184.882C147.73 188.409 142.948 190.392 137.961 190.398ZM137.961 155.129C134.706 155.129 131.524 156.094 128.817 157.903C126.111 159.711 124.001 162.282 122.756 165.289C121.51 168.297 121.184 171.606 121.819 174.799C122.454 177.991 124.022 180.924 126.323 183.226C128.625 185.528 131.558 187.095 134.75 187.73C137.943 188.365 141.252 188.04 144.26 186.794C147.267 185.548 149.838 183.438 151.646 180.732C153.455 178.025 154.42 174.843 154.42 171.588C154.415 167.224 152.68 163.041 149.594 159.955C146.509 156.87 142.325 155.134 137.961 155.129Z" fill="#E4E4E4"/>
<path d="M66.6423 120.632H64.291V138.174H66.6423V120.632Z" fill="#E4E4E4"/>
<path d="M75.0834 128.423L73.3612 130.027L65.4691 121.535L57.575 130.027L55.8528 128.423L65.4691 118.083L75.0834 128.423Z" fill="#E4E4E4"/>
<path d="M64.8157 146.992C61.0954 146.992 57.4587 145.889 54.3654 143.822C51.2721 141.755 48.8611 138.817 47.4375 135.38C46.0138 131.943 45.6413 128.161 46.3671 124.512C47.0928 120.863 48.8843 117.512 51.515 114.881C54.1456 112.25 57.4972 110.459 61.146 109.733C64.7948 109.007 68.5769 109.38 72.014 110.803C75.4511 112.227 78.3888 114.638 80.4557 117.731C82.5226 120.825 83.6258 124.461 83.6258 128.182C83.6202 133.169 81.6366 137.95 78.1102 141.476C74.5839 145.003 69.8027 146.986 64.8157 146.992ZM64.8157 111.723C61.5605 111.723 58.3783 112.688 55.6717 114.497C52.965 116.305 50.8555 118.876 49.6098 121.883C48.364 124.891 48.0381 128.2 48.6732 131.393C49.3082 134.585 50.8758 137.518 53.1776 139.82C55.4794 142.122 58.4121 143.689 61.6047 144.324C64.7974 144.959 68.1068 144.633 71.1142 143.388C74.1217 142.142 76.6922 140.032 78.5007 137.326C80.3092 134.619 81.2745 131.437 81.2745 128.182C81.2696 123.818 79.534 119.635 76.4484 116.549C73.3628 113.463 69.1793 111.728 64.8157 111.723Z" fill="#E4E4E4"/>
<path d="M197.502 336.35C196.976 335.809 196.572 335.162 196.317 334.453C196.061 333.744 195.958 332.988 196.017 332.236C196.075 331.485 196.293 330.754 196.656 330.093C197.019 329.432 197.518 328.856 198.121 328.403C198.377 328.202 198.65 328.021 198.935 327.863L194.417 308.396L204.924 312.169L207.604 330.077C208.233 331.197 208.436 332.508 208.172 333.765C207.909 335.023 207.199 336.143 206.173 336.917C204.909 337.9 203.328 338.385 201.73 338.281C200.131 338.176 198.627 337.489 197.502 336.35Z" fill="#FFB8B8"/>
<path d="M196.308 321.161L196.252 320.97C190.572 301.716 184.7 281.812 177.532 260.141L177.485 259.999L177.643 259.915C181.639 257.778 187.644 257.92 191.612 260.245C195.283 262.397 197.139 266.558 196.135 270.377L201.364 295.36C203.489 303.526 205.689 311.979 207.792 320.314L207.851 320.55L207.526 320.569C203.697 320.792 199.743 321.023 196.574 321.15L196.308 321.161Z" fill="#CCCCCC"/>
<path d="M148.036 424.787H140.586L137.04 398.45H148.036V424.787Z" fill="#FFB8B8"/>
<path d="M149.937 431.405H125.914V431.127C125.914 426.402 130.108 422.557 135.264 422.557H149.937V431.405Z" fill="#2F2E41"/>
<path d="M218.241 419.154L211.142 421.227L199.04 397.121L209.516 394.061L218.241 419.154Z" fill="#FFB8B8"/>
<path d="M199.355 431.616L199.263 431.351C197.698 426.848 200.421 422.019 205.333 420.584L219.313 416.501L222.244 424.932L199.355 431.616Z" fill="#2F2E41"/>
<path d="M180.532 242.497C188.775 242.497 195.458 236.373 195.458 228.818C195.458 221.263 188.775 215.139 180.532 215.139C172.288 215.139 165.606 221.263 165.606 228.818C165.606 236.373 172.288 242.497 180.532 242.497Z" fill="#FFB8B8"/>
<path d="M187.233 226.283C187.318 220.766 184.799 215.302 180.903 212.554C179.02 211.216 176.758 210.514 174.448 210.551C172.138 210.589 169.9 211.363 168.061 212.762C164.226 215.635 161.824 221.179 162.028 226.691C170.621 226.713 179.214 226.736 187.233 226.283Z" fill="#2F2E41"/>
<path d="M152.29 416.309L151.991 416.283C145.509 415.7 138.807 415.098 132.473 415.029L132.128 415.025L132.175 414.712C133.676 404.751 134.312 394.395 134.927 384.38C135.535 374.491 136.163 364.266 137.626 354.554C138.245 351.954 138.848 349.384 139.45 346.824C144.424 325.636 149.123 305.623 158.821 285.813L158.913 285.626L159.135 285.651C168.235 286.66 176.979 289.702 183.756 294.218L183.888 294.305L183.881 294.454C183.695 297.503 183.673 300.559 183.816 303.61C186.865 307.409 188.907 311.916 189.752 316.714C190.597 321.512 190.217 326.445 188.649 331.057C191.318 339.231 194.077 347.679 196.891 356.013C203.727 373.189 210.801 390.962 218.052 408.979L218.171 409.274L217.836 409.346C212.619 410.469 207.237 411.626 201.928 412.075L201.728 412.092L201.633 411.929C188.168 389.003 177.151 364.726 168.763 339.496C166.951 344.56 164.341 349.131 161.812 353.558C159.404 357.566 157.276 361.734 155.442 366.035C154.323 374.456 154.026 383.581 153.739 392.404C153.468 400.747 153.212 408.626 152.323 416.036L152.29 416.309Z" fill="#2F2E41"/>
<path d="M175.436 212.807C181.906 211.53 189.062 212.745 194.143 216.746C199.224 220.746 201.804 227.667 199.717 233.602C197.629 239.537 190.543 243.713 184.135 242.181C185.971 237.44 183.905 231.619 179.418 228.889C174.097 225.65 172.632 217.918 175.436 212.807Z" fill="#2F2E41"/>
<path d="M183.291 294.813L183.054 294.714C174.801 291.263 166.708 288.615 159.126 286.199L158.893 286.153L158.893 285.536L159.043 285.584C159.075 285.52 159.111 285.447 159.147 285.374C159.25 285.164 159.321 285.021 159.381 284.926L159.38 284.926C160.012 283.745 160.514 282.604 161 281.501C161.502 280.362 162.019 279.187 162.688 277.943C161.088 276.529 159.976 274.647 159.509 272.564C159.043 270.481 159.246 268.304 160.089 266.343C161.764 262.704 166.035 259.871 170.523 259.401C172.167 255.252 175.831 246.535 175.831 246.535C175.831 246.535 183.535 246.341 186.634 245.981L186.686 245.975L186.737 245.985C193.501 247.344 199.149 253.21 200.47 260.251C201.585 266.193 199.892 272.99 195.701 279.39C193.538 282.537 191.16 285.531 188.585 288.351C186.698 290.514 184.915 292.557 183.434 294.614L183.291 294.813Z" fill="#CCCCCC"/>
<path d="M198.23 220.914C193.702 220.294 190.146 216.051 190.66 211.881C191.175 207.711 195.676 204.304 200.241 204.627C204.807 204.951 208.682 208.952 208.491 213.145C208.301 217.337 204.013 221.705 198.23 220.914Z" fill="#2F2E41"/>
<path d="M197.523 218.21C192.995 217.59 189.439 213.347 189.954 209.177C190.306 206.325 192.524 203.831 195.351 202.642C191.699 203.375 188.556 206.291 188.13 209.734C187.616 213.904 191.171 218.147 195.7 218.767C197.383 219.01 199.1 218.79 200.666 218.13C199.63 218.329 198.568 218.356 197.523 218.21Z" fill="#2F2E41"/>
<path d="M109.675 291.713C110.564 290.387 111.912 289.437 113.46 289.047C115.008 288.657 116.646 288.854 118.057 289.6C118.346 289.753 118.622 289.928 118.883 290.124L137.405 279.734L137.025 290.071L119.494 298.352C118.504 299.283 117.249 299.884 115.903 300.07C114.557 300.257 113.186 300.021 111.98 299.395C111.296 299.073 110.687 298.61 110.193 298.037C109.699 297.464 109.331 296.793 109.114 296.068C108.896 295.344 108.834 294.581 108.931 293.831C109.027 293.081 109.281 292.359 109.675 291.713Z" fill="#FFB8B8"/>
<path d="M124.903 285.621L125.081 285.509C142.997 274.186 161.518 262.481 181.425 249.066L181.555 248.978L181.695 249.086C185.224 251.827 187.079 257.064 186.009 261.267C185.019 265.156 181.356 268.146 177.093 268.551L153.132 281.393C145.439 285.951 137.475 290.668 129.601 295.262L129.378 295.392L129.25 295.117C127.745 291.883 126.19 288.543 125.003 285.847L124.903 285.621Z" fill="#CCCCCC"/>
<path d="M499.354 432.494H0.645995C0.474666 432.494 0.310355 432.425 0.189207 432.304C0.0680595 432.183 0 432.019 0 431.848C0 431.676 0.0680595 431.512 0.189207 431.391C0.310355 431.27 0.474666 431.202 0.645995 431.202H499.354C499.525 431.202 499.69 431.27 499.811 431.391C499.932 431.512 500 431.676 500 431.848C500 432.019 499.932 432.183 499.811 432.304C499.69 432.425 499.525 432.494 499.354 432.494Z" fill="#CACACA"/>
</g>
<defs>
<clipPath id="clip0">
<rect width="500" height="432.494" fill="white"/>
</clipPath>
</defs>
</svg>
