<svg width="36" height="36" viewBox="0 0 36 36" fill="none" xmlns="http://www.w3.org/2000/svg">
<path opacity="0.1" fill-rule="evenodd" clip-rule="evenodd" d="M0 18C0 8.05888 8.05888 0 18 0C27.9411 0 36 8.05888 36 18C36 27.9411 27.9411 36 18 36C8.05888 36 0 27.9411 0 18Z" fill="white"/>
<path fill-rule="evenodd" clip-rule="evenodd" d="M27.6001 17.9867C27.6001 18.6359 27.5341 19.2843 27.4042 19.9162C27.2776 20.5332 27.0901 21.1389 26.8445 21.7179C26.6045 22.2867 26.3068 22.8348 25.959 23.346C25.6164 23.8539 25.2216 24.3304 24.788 24.7648C24.3534 25.1973 23.8753 25.5909 23.3676 25.935C22.8548 26.2805 22.3059 26.5777 21.7368 26.8188C21.1569 27.0632 20.5498 27.2504 19.9334 27.3768C19.3006 27.5069 18.6499 27.5734 17.9997 27.5734C17.3491 27.5734 16.6984 27.5069 16.0665 27.3768C15.4491 27.2504 14.8421 27.0632 14.2627 26.8188C13.6936 26.5777 13.1441 26.2805 12.6313 25.935C12.1236 25.591 11.6455 25.1973 11.2119 24.7648C10.7778 24.3304 10.3831 23.8539 10.0399 23.346C9.69398 22.8348 9.39582 22.2867 9.15489 21.7179C8.90922 21.1389 8.72127 20.5332 8.59422 19.9162C8.46579 19.2843 8.40015 18.6359 8.40015 17.9867C8.40015 17.337 8.46575 16.6873 8.59426 16.0567C8.7213 15.4397 8.90926 14.8331 9.15492 14.255C9.39586 13.6858 9.69402 13.1372 10.04 12.626C10.3831 12.1177 10.7778 11.6421 11.2119 11.2072C11.6455 10.7747 12.1237 10.382 12.6314 10.0384C13.1442 9.6915 13.6936 9.3943 14.2627 9.15274C14.8421 8.90787 15.4491 8.72019 16.0665 8.59476C16.6984 8.46557 17.3491 8.40002 17.9998 8.40002C18.6499 8.40002 19.3006 8.46557 19.9334 8.59476C20.5498 8.72023 21.1569 8.90791 21.7368 9.15274C22.3059 9.39426 22.8548 9.6915 23.3677 10.0384C23.8753 10.382 24.3535 10.7747 24.788 11.2072C25.2217 11.6421 25.6164 12.1177 25.959 12.626C26.3068 13.1372 26.6045 13.6859 26.8445 14.255C27.0901 14.8331 27.2776 15.4397 27.4042 16.0567C27.5341 16.6873 27.6001 17.337 27.6001 17.9867ZM14.5017 10.5818C12.2154 11.6599 10.5091 13.7635 9.97704 16.2987C10.1932 16.3006 13.6096 16.3437 17.5459 15.2993C16.1269 12.7819 14.6109 10.7274 14.5017 10.5818ZM18.2251 16.56C14.0038 17.8219 9.95314 17.7311 9.80784 17.7255C9.80547 17.8135 9.80126 17.8987 9.80126 17.9867C9.80126 20.0898 10.5958 22.0072 11.9018 23.4569C11.899 23.4527 14.1426 19.4781 18.5669 18.0494C18.6737 18.0139 18.7825 17.982 18.8903 17.9511C18.6846 17.4859 18.46 17.0196 18.2251 16.56ZM23.414 11.8424C21.9707 10.5715 20.0754 9.80061 17.9997 9.80061C17.3336 9.80061 16.6871 9.88113 16.0679 10.03C16.1907 10.1948 17.7306 12.2347 19.1327 14.8055C22.2262 13.6474 23.3939 11.8724 23.414 11.8424ZM19.4492 19.3077C19.4309 19.3137 19.4127 19.3189 19.3948 19.3255C14.5576 21.0094 12.9779 24.4029 12.9609 24.4399C14.3527 25.5207 16.0984 26.1728 17.9997 26.1728C19.1351 26.1728 20.2165 25.942 21.2005 25.524C21.0791 24.8088 20.6028 22.3016 19.4492 19.3077ZM22.581 24.776C24.4219 23.5356 25.7293 21.5658 26.094 19.2842C25.9252 19.2299 23.6315 18.5048 20.9853 18.9285C22.0606 21.8794 22.4976 24.2827 22.581 24.776ZM19.7637 16.0254C19.954 16.4158 20.1383 16.8131 20.3084 17.2125C20.3689 17.3557 20.428 17.4962 20.4856 17.6366C23.302 17.2827 26.0767 17.8781 26.1953 17.9024C26.1766 15.9617 25.4814 14.1806 24.331 12.7861C24.3155 12.8081 23.0006 14.7053 19.7637 16.0254Z" fill="white"/>
</svg>
