<svg width="511" height="370" viewBox="0 0 511 370" fill="none" xmlns="http://www.w3.org/2000/svg">
<g clip-path="url(#clip0)">
<path d="M325.635 277.378V366.57H101.936C76.4483 366.57 55.7114 346.563 55.7114 321.974C55.7114 297.384 76.4483 277.378 101.936 277.378H325.635Z" fill="#F2F2F2"/>
<path d="M331.129 365.883C331.129 366.793 330.767 367.665 330.123 368.309C329.479 368.952 328.606 369.314 327.695 369.314H97.9513C85.4734 369.314 73.5067 364.362 64.6835 355.549C55.8604 346.735 50.9036 334.781 50.9036 322.317C50.9036 309.852 55.8604 297.898 64.6835 289.084C73.5067 280.271 85.4734 275.319 97.9513 275.319H327.695C328.606 275.319 329.479 275.681 330.124 276.324C330.768 276.967 331.129 277.84 331.129 278.75C331.129 279.659 330.768 280.532 330.124 281.175C329.479 281.819 328.606 282.18 327.695 282.18H97.9513C87.295 282.18 77.0752 286.409 69.5401 293.936C62.005 301.463 57.7718 311.672 57.7718 322.317C57.7718 332.961 62.005 343.17 69.5401 350.697C77.0752 358.224 87.295 362.453 97.9513 362.453H327.695C328.606 362.453 329.479 362.815 330.123 363.458C330.767 364.101 331.129 364.974 331.129 365.883Z" fill="#2EC5CE"/>
<path d="M325.635 297.96H85.2449C85.0628 297.96 84.8881 297.888 84.7593 297.759C84.6305 297.631 84.5581 297.456 84.5581 297.274C84.5581 297.092 84.6305 296.918 84.7593 296.789C84.8881 296.66 85.0628 296.588 85.2449 296.588H325.635C325.817 296.588 325.992 296.66 326.12 296.789C326.249 296.918 326.322 297.092 326.322 297.274C326.322 297.456 326.249 297.631 326.12 297.759C325.992 297.888 325.817 297.96 325.635 297.96Z" fill="#CCCCCC"/>
<path d="M325.635 314.427H85.2449C85.0628 314.427 84.8881 314.354 84.7593 314.226C84.6305 314.097 84.5581 313.923 84.5581 313.741C84.5581 313.559 84.6305 313.384 84.7593 313.255C84.8881 313.127 85.0628 313.054 85.2449 313.054H325.635C325.817 313.054 325.992 313.127 326.12 313.255C326.249 313.384 326.322 313.559 326.322 313.741C326.322 313.923 326.249 314.097 326.12 314.226C325.992 314.354 325.817 314.427 325.635 314.427Z" fill="#CCCCCC"/>
<path d="M325.635 330.893H85.2449C85.0628 330.893 84.8881 330.821 84.7593 330.692C84.6305 330.563 84.5581 330.389 84.5581 330.207C84.5581 330.025 84.6305 329.85 84.7593 329.722C84.8881 329.593 85.0628 329.521 85.2449 329.521H325.635C325.817 329.521 325.992 329.593 326.12 329.722C326.249 329.85 326.322 330.025 326.322 330.207C326.322 330.389 326.249 330.563 326.12 330.692C325.992 330.821 325.817 330.893 325.635 330.893Z" fill="#CCCCCC"/>
<path d="M325.635 347.359H85.2449C85.0628 347.359 84.8881 347.287 84.7593 347.158C84.6305 347.029 84.5581 346.855 84.5581 346.673C84.5581 346.491 84.6305 346.316 84.7593 346.188C84.8881 346.059 85.0628 345.987 85.2449 345.987H325.635C325.817 345.987 325.992 346.059 326.12 346.188C326.249 346.316 326.322 346.491 326.322 346.673C326.322 346.855 326.249 347.029 326.12 347.158C325.992 347.287 325.817 347.359 325.635 347.359Z" fill="#CCCCCC"/>
<path d="M498.521 294.167L442.501 363.619L268.31 223.416C248.464 207.441 244.882 178.866 260.327 159.719C275.772 140.571 304.485 137.989 324.331 153.964L498.521 294.167Z" fill="#F2F2F2"/>
<path d="M447.21 366.528C446.638 367.236 445.808 367.689 444.903 367.786C443.998 367.884 443.09 367.618 442.381 367.047L263.484 223.055C253.768 215.235 247.559 203.879 246.225 191.486C244.89 179.093 248.539 166.678 256.368 156.972C264.196 147.267 275.564 141.065 287.971 139.732C300.377 138.399 312.805 142.043 322.521 149.864L501.419 293.855C501.77 294.138 502.062 294.487 502.279 294.882C502.495 295.278 502.631 295.712 502.68 296.16C502.728 296.608 502.688 297.061 502.561 297.494C502.434 297.926 502.223 298.329 501.94 298.68C501.656 299.031 501.307 299.323 500.911 299.539C500.515 299.755 500.08 299.891 499.632 299.939C499.183 299.987 498.73 299.946 498.297 299.819C497.864 299.692 497.46 299.481 497.109 299.198L318.212 155.206C314.104 151.897 309.383 149.428 304.319 147.942C299.256 146.455 293.948 145.98 288.701 146.543C283.453 147.105 278.368 148.696 273.736 151.222C269.103 153.749 265.015 157.162 261.703 161.267C258.392 165.373 255.923 170.089 254.437 175.148C252.951 180.207 252.477 185.509 253.042 190.75C253.608 195.992 255.202 201.071 257.733 205.698C260.264 210.324 263.682 214.407 267.793 217.713L446.69 361.705C447.399 362.276 447.852 363.105 447.95 364.009C448.047 364.914 447.781 365.82 447.21 366.528Z" fill="#CCCCCC"/>
<path d="M485.594 310.194L298.407 159.53C298.337 159.474 298.278 159.404 298.235 159.325C298.192 159.246 298.164 159.159 298.155 159.069C298.145 158.98 298.153 158.889 298.179 158.803C298.204 158.716 298.246 158.636 298.303 158.565C298.359 158.495 298.429 158.437 298.508 158.394C298.588 158.351 298.675 158.323 298.764 158.314C298.854 158.304 298.945 158.312 299.031 158.338C299.118 158.363 299.198 158.405 299.269 158.462L486.455 309.126C486.526 309.182 486.584 309.252 486.628 309.331C486.671 309.41 486.698 309.497 486.708 309.587C486.718 309.676 486.71 309.767 486.684 309.854C486.659 309.94 486.617 310.021 486.56 310.091C486.503 310.161 486.433 310.22 486.354 310.263C486.275 310.306 486.188 310.333 486.098 310.343C486.008 310.352 485.918 310.344 485.831 310.319C485.744 310.293 485.664 310.251 485.594 310.194V310.194Z" fill="#CCCCCC"/>
<path d="M475.251 323.016L288.064 172.352C287.923 172.238 287.832 172.072 287.813 171.891C287.794 171.711 287.847 171.53 287.961 171.388C288.075 171.246 288.241 171.156 288.422 171.136C288.603 171.117 288.784 171.17 288.926 171.284L476.113 321.948C476.183 322.004 476.242 322.074 476.285 322.153C476.329 322.232 476.356 322.319 476.366 322.409C476.375 322.498 476.367 322.589 476.342 322.675C476.316 322.762 476.274 322.843 476.218 322.913C476.161 322.983 476.091 323.042 476.012 323.085C475.932 323.128 475.846 323.155 475.756 323.165C475.666 323.174 475.575 323.166 475.489 323.141C475.402 323.115 475.321 323.073 475.251 323.016Z" fill="#CCCCCC"/>
<path d="M464.909 335.838L277.722 185.174C277.58 185.06 277.49 184.894 277.47 184.713C277.451 184.532 277.504 184.351 277.618 184.209C277.733 184.068 277.899 183.977 278.08 183.958C278.261 183.938 278.442 183.991 278.584 184.105L465.771 334.77C465.841 334.826 465.9 334.896 465.943 334.975C465.986 335.054 466.013 335.141 466.023 335.23C466.032 335.32 466.024 335.411 465.999 335.497C465.974 335.583 465.931 335.664 465.875 335.734C465.818 335.804 465.748 335.863 465.669 335.906C465.59 335.949 465.503 335.976 465.413 335.986C465.324 335.996 465.233 335.987 465.146 335.962C465.06 335.937 464.979 335.895 464.909 335.838V335.838Z" fill="#CCCCCC"/>
<path d="M454.567 348.66L267.38 197.996C267.31 197.939 267.251 197.87 267.208 197.791C267.165 197.711 267.138 197.625 267.128 197.535C267.118 197.446 267.126 197.355 267.152 197.268C267.177 197.182 267.219 197.101 267.276 197.031C267.333 196.961 267.403 196.903 267.482 196.86C267.561 196.816 267.648 196.789 267.737 196.78C267.827 196.77 267.918 196.778 268.004 196.803C268.091 196.829 268.172 196.871 268.242 196.927L455.429 347.592C455.499 347.648 455.557 347.718 455.601 347.797C455.644 347.876 455.671 347.963 455.681 348.052C455.691 348.142 455.683 348.233 455.657 348.319C455.632 348.406 455.59 348.487 455.533 348.557C455.476 348.627 455.407 348.685 455.327 348.729C455.248 348.772 455.161 348.799 455.071 348.809C454.982 348.818 454.891 348.81 454.804 348.784C454.718 348.759 454.637 348.717 454.567 348.66Z" fill="#CCCCCC"/>
<path d="M510.313 370H0.686828C0.50467 370 0.329972 369.928 0.201167 369.799C0.0723615 369.67 0 369.496 0 369.314C0 369.132 0.0723615 368.957 0.201167 368.829C0.329972 368.7 0.50467 368.628 0.686828 368.628H510.313C510.495 368.628 510.67 368.7 510.799 368.829C510.928 368.957 511 369.132 511 369.314C511 369.496 510.928 369.67 510.799 369.799C510.67 369.928 510.495 370 510.313 370Z" fill="#CCCCCC"/>
<path d="M232.204 268.003L224.352 268.002L220.617 237.748L232.206 237.75L232.204 268.003Z" fill="#FFB8B8"/>
<path d="M218.742 265.761H233.886V275.285H209.208C209.208 274.035 209.455 272.796 209.934 271.64C210.413 270.485 211.115 269.435 212.001 268.551C212.886 267.666 213.937 266.965 215.094 266.486C216.251 266.007 217.49 265.761 218.742 265.761Z" fill="#2F2E41"/>
<path d="M151.985 268.003L144.134 268.002L140.399 237.748L151.988 237.75L151.985 268.003Z" fill="#FFB8B8"/>
<path d="M138.525 265.761H153.668V275.285H128.99C128.99 274.035 129.237 272.796 129.716 271.64C130.195 270.485 130.898 269.435 131.783 268.551C132.668 267.666 133.72 266.965 134.876 266.486C136.033 266.007 137.273 265.761 138.525 265.761Z" fill="#2F2E41"/>
<path d="M178.212 43.5896V40.1591C178.212 34.2908 180.546 28.6628 184.7 24.5133C188.854 20.3638 194.487 18.0326 200.362 18.0326H200.362C206.237 18.0326 211.871 20.3638 216.025 24.5133C220.179 28.6628 222.512 34.2908 222.512 40.1591V43.5896C222.512 47.8202 220.83 51.8776 217.835 54.8691C214.84 57.8606 210.779 59.5412 206.544 59.5412H194.181C192.084 59.5412 190.007 59.1286 188.07 58.327C186.132 57.5253 184.372 56.3503 182.889 54.8691C181.406 53.3879 180.23 51.6294 179.427 49.694C178.625 47.7587 178.212 45.6844 178.212 43.5896Z" fill="#2F2E41"/>
<path d="M200.362 60.7216C209.679 60.7216 217.231 53.177 217.231 43.8704C217.231 34.5638 209.679 27.0193 200.362 27.0193C191.046 27.0193 183.493 34.5638 183.493 43.8704C183.493 53.177 191.046 60.7216 200.362 60.7216Z" fill="#FFB8B8"/>
<path d="M108.604 101.786C109.289 101.14 110.107 100.652 111.001 100.356C111.894 100.06 112.842 99.964 113.777 100.074C114.712 100.183 115.612 100.497 116.413 100.991C117.214 101.486 117.896 102.15 118.412 102.936L132.873 100.204L136.679 108.577L116.203 112.15C114.823 112.928 113.205 113.174 111.655 112.84C110.105 112.507 108.732 111.617 107.795 110.339C106.859 109.062 106.424 107.485 106.573 105.909C106.722 104.332 107.445 102.865 108.604 101.786V101.786Z" fill="#FFB8B8"/>
<path d="M187.21 71.3339L187.399 71.6201L163.686 87.2249L123.673 99.9884C123.142 100.159 122.687 100.507 122.385 100.975C122.083 101.443 121.953 102 122.016 102.553L122.889 110.064C122.928 110.396 123.036 110.717 123.206 111.005C123.376 111.293 123.604 111.543 123.876 111.738C124.149 111.933 124.459 112.069 124.787 112.137C125.115 112.206 125.453 112.205 125.781 112.135L163.439 104.071C165.262 103.683 166.985 102.925 168.502 101.844L195.143 82.9104C196.109 82.2202 196.879 81.2922 197.38 80.2165C197.88 79.1408 198.093 77.954 197.999 76.7716C197.901 75.5875 197.497 74.4493 196.825 73.4688C196.153 72.4883 195.238 71.6994 194.168 71.1796C193.099 70.6598 191.912 70.4271 190.725 70.5043C189.539 70.5816 188.392 70.9661 187.399 71.6201L187.21 71.3339Z" fill="#CCCCCC"/>
<path d="M224.492 259.418C223.889 259.418 223.299 259.242 222.795 258.913C222.29 258.584 221.892 258.115 221.65 257.564L185.653 168.715C185.569 168.522 185.428 168.36 185.249 168.249C185.07 168.139 184.861 168.086 184.651 168.098C184.441 168.11 184.239 168.186 184.074 168.315C183.908 168.445 183.786 168.622 183.724 168.823L154.357 255.321C154.233 255.724 154.028 256.097 153.754 256.417C153.48 256.738 153.144 256.999 152.766 257.185C152.387 257.37 151.975 257.477 151.554 257.498C151.133 257.518 150.712 257.453 150.317 257.305L140.469 253.616C139.935 253.417 139.466 253.075 139.114 252.626C138.763 252.177 138.543 251.64 138.479 251.074C134.049 212.521 172.683 115.207 173.074 114.229L173.182 113.958L208.401 121.74L208.474 121.82C222.525 137.132 234.075 233.71 236.247 252.914C236.328 253.608 236.17 254.309 235.799 254.901C235.428 255.493 234.867 255.941 234.207 256.171L225.514 259.242C225.186 259.358 224.84 259.418 224.492 259.418Z" fill="#2F2E41"/>
<path d="M194.147 124.873C185.614 124.873 176.101 123.173 173.173 116.159L173.106 115.998L173.197 115.848C175.508 112.06 178.563 105.598 176.921 104.385C173.686 101.996 172.117 98.0659 172.256 92.7038C172.559 81.0637 180.499 70.729 192.014 66.9874H192.014C195.228 65.9599 198.499 65.1186 201.81 64.4678C204.224 63.9812 206.716 64.0347 209.107 64.6245C211.497 65.2143 213.728 66.3257 215.637 67.8788C217.571 69.4422 219.134 71.4139 220.215 73.6525C221.295 75.8911 221.865 78.3408 221.885 80.8258C222.006 93.2652 220.088 110.591 210.269 122.485C209.809 123.037 209.168 123.409 208.461 123.536C203.737 124.39 198.948 124.837 194.147 124.873Z" fill="#CCCCCC"/>
<path d="M190.973 124.407C191.438 122.743 192.541 121.329 194.043 120.473C195.544 119.617 197.324 119.388 198.994 119.835C199.335 119.93 199.668 120.053 199.989 120.203L210.969 110.221L218.605 115.36L202.903 129.24C202.194 130.517 201.078 131.52 199.732 132.091C198.386 132.661 196.888 132.765 195.476 132.387C194.654 132.162 193.884 131.776 193.211 131.253C192.539 130.729 191.977 130.077 191.558 129.335C191.14 128.593 190.872 127.775 190.772 126.929C190.672 126.084 190.74 125.226 190.973 124.407Z" fill="#FFB8B8"/>
<path d="M209.23 124.534C208.517 124.534 207.827 124.288 207.275 123.837L202.945 120.302C202.584 120.008 202.295 119.635 202.098 119.213C201.902 118.791 201.803 118.33 201.811 117.864C201.818 117.399 201.93 116.941 202.14 116.525C202.349 116.109 202.65 115.745 203.02 115.462L221.181 101.548C221.396 101.382 221.537 101.139 221.574 100.87C221.61 100.6 221.539 100.328 221.376 100.111L210.166 85.3078C208.864 83.5936 208.211 81.4745 208.322 79.3255C208.434 77.1765 209.303 75.1362 210.776 73.5658C212.327 71.8923 214.451 70.8625 216.727 70.6807C219.003 70.4989 221.264 71.1783 223.062 72.5842L223.133 72.6589L234.838 89.4012C236.103 90.3925 237.122 91.6627 237.816 93.1126C238.509 94.5624 238.857 96.1527 238.833 97.7592C238.809 99.3657 238.413 100.945 237.677 102.374C236.942 103.802 235.885 105.041 234.59 105.995L211.069 123.928C210.537 124.321 209.892 124.534 209.23 124.534Z" fill="#CCCCCC"/>
<path d="M185.42 39.1299V30.7691L200.362 24.2512L214.61 30.7691V39.1299C214.61 39.4938 214.465 39.8429 214.208 40.1002C213.95 40.3575 213.601 40.5021 213.236 40.5021H186.793C186.429 40.5021 186.08 40.3575 185.822 40.1002C185.564 39.8429 185.42 39.4938 185.42 39.1299Z" fill="#2F2E41"/>
<path d="M199.676 19.1418C197.479 12.1172 202.093 4.06672 208.915 1.28622C215.736 -1.49429 223.897 0.44937 229.652 5.04318C235.408 9.637 238.979 16.5177 240.871 23.6302C242.764 30.7428 243.123 38.1595 243.472 45.5107C251.853 47.0485 257.554 56.9782 254.651 64.9808C251.748 72.9834 241.002 76.9592 233.58 72.7764C226.159 68.5936 224.01 57.3499 229.366 50.7297C231.9 47.5972 233.316 43.7096 233.389 39.6826C233.461 35.6557 232.187 31.7195 229.768 28.4976C227.348 25.2757 223.922 22.9522 220.031 21.8952C216.141 20.8381 212.008 21.1079 208.289 22.6619C204.158 24.3873 198.975 19.9042 199.676 19.1418Z" fill="#2F2E41"/>
<path d="M105.506 69.3521C95.4723 69.2863 85.5636 67.1185 76.4205 62.9887C75.8762 62.7464 75.4143 62.3512 75.0909 61.8513C74.7675 61.3513 74.5966 60.7682 74.5991 60.173V35.1869C74.6001 34.3683 74.926 33.5836 75.5054 33.0048C76.0848 32.426 76.8704 32.1004 77.6899 32.0995H133.323C134.142 32.1004 134.928 32.426 135.507 33.0048C136.087 33.5836 136.413 34.3684 136.414 35.1869V60.173C136.416 60.7682 136.245 61.3513 135.922 61.8513C135.599 62.3512 135.137 62.7464 134.592 62.9887C125.449 67.1185 115.541 69.2864 105.506 69.3521Z" fill="#6C63FF"/>
<path d="M105.499 49.1104C105.086 49.1108 104.678 49.0288 104.298 48.8692L60.1815 30.2764C59.6126 30.0366 59.1286 29.6322 58.792 29.1151C58.4553 28.598 58.2814 27.9921 58.2928 27.3754C58.3041 26.7587 58.5001 26.1595 58.8555 25.6551C59.2108 25.1507 59.7093 24.7642 60.2866 24.5454L104.404 7.82692C105.114 7.55641 105.9 7.55808 106.609 7.83161L150.135 24.5501C150.709 24.7706 151.204 25.1572 151.557 25.6604C151.91 26.1636 152.104 26.7605 152.116 27.3748C152.127 27.9891 151.955 28.5927 151.621 29.1086C151.287 29.6245 150.806 30.0291 150.241 30.2707L106.714 48.8632C106.33 49.0267 105.917 49.1108 105.499 49.1104Z" fill="#6C63FF"/>
<path d="M79.7504 64.6889C82.0263 64.6889 83.8713 62.8459 83.8713 60.5724C83.8713 58.2989 82.0263 56.4558 79.7504 56.4558C77.4744 56.4558 75.6294 58.2989 75.6294 60.5724C75.6294 62.8459 77.4744 64.6889 79.7504 64.6889Z" fill="#3F3D56"/>
<path opacity="0.2" d="M150.391 27.6315L106.865 46.224C106.525 46.369 106.16 46.4442 105.791 46.445C105.422 46.4459 105.057 46.3725 104.717 46.2292L60.6004 27.6369C60.0464 27.409 59.5842 27.0032 59.2868 26.4836C59.0923 26.8205 58.9717 27.195 58.9332 27.582C58.8946 27.9691 58.9389 28.3599 59.0632 28.7285C59.1874 29.0972 59.3887 29.4352 59.6538 29.7202C59.9188 30.0051 60.2415 30.2305 60.6004 30.3813L104.717 48.9736C105.057 49.1169 105.422 49.1903 105.791 49.1894C106.16 49.1885 106.525 49.1134 106.865 48.9684L150.391 30.3759C150.748 30.2237 151.069 29.9976 151.332 29.7125C151.595 29.4275 151.795 29.0899 151.918 28.722C152.041 28.3542 152.084 27.9644 152.046 27.5786C152.007 27.1927 151.886 26.8195 151.692 26.4835C151.397 26.999 150.94 27.4026 150.391 27.6315Z" fill="black"/>
<path d="M80.0967 60.5562C80.2789 60.5562 80.4536 60.4839 80.5824 60.3553C80.7112 60.2266 80.7836 60.0521 80.7836 59.8701V36.9125L103.436 28.669C103.618 28.6717 103.794 28.602 103.925 28.4753C104.055 28.3485 104.13 28.1751 104.133 27.9931C104.136 27.8112 104.066 27.6356 103.939 27.505C103.812 27.3744 103.639 27.2995 103.456 27.2968L80.804 35.5403C80.6217 35.5361 80.4405 35.5689 80.2713 35.6368C80.1021 35.7046 79.9484 35.806 79.8196 35.9349C79.6894 36.0623 79.586 36.2144 79.5157 36.3823C79.4453 36.5502 79.4094 36.7305 79.4099 36.9125V59.8701C79.4099 60.0521 79.4823 60.2266 79.6111 60.3552C79.7399 60.4839 79.9146 60.5562 80.0967 60.5562Z" fill="#3F3D56"/>
</g>
<defs>
<clipPath id="clip0">
<rect width="511" height="370" fill="white"/>
</clipPath>
</defs>
</svg>
