<svg width="32" height="32" viewBox="0 0 32 32" fill="none" xmlns="http://www.w3.org/2000/svg">
<path d="M26.747 8.61537C27.7666 8.61537 28.5932 7.78882 28.5932 6.76922C28.5932 5.74962 27.7666 4.92307 26.747 4.92307C25.7274 4.92307 24.9009 5.74962 24.9009 6.76922C24.9009 7.78882 25.7274 8.61537 26.747 8.61537Z" fill="#6C63FF"/>
<path d="M21.8239 4.92308C22.8435 4.92308 23.6701 4.09653 23.6701 3.07693C23.6701 2.05733 22.8435 1.23077 21.8239 1.23077C20.8043 1.23077 19.9778 2.05733 19.9778 3.07693C19.9778 4.09653 20.8043 4.92308 21.8239 4.92308Z" fill="#6C63FF"/>
<path d="M16.9008 3.69231C17.9204 3.69231 18.747 2.86576 18.747 1.84615C18.747 0.826551 17.9204 0 16.9008 0C15.8812 0 15.0547 0.826551 15.0547 1.84615C15.0547 2.86576 15.8812 3.69231 16.9008 3.69231Z" fill="#6C63FF"/>
<path d="M11.9777 6.15386C12.9973 6.15386 13.8239 5.3273 13.8239 4.3077C13.8239 3.2881 12.9973 2.46155 11.9777 2.46155C10.9581 2.46155 10.1316 3.2881 10.1316 4.3077C10.1316 5.3273 10.9581 6.15386 11.9777 6.15386Z" fill="#6C63FF"/>
<path d="M24.9009 6.76924V14.7692C24.9009 15.1089 24.6253 15.3846 24.2856 15.3846C23.9459 15.3846 23.6702 15.1089 23.6702 14.7692V3.07693H19.9779V13.5385C19.9779 13.8782 19.7022 14.1539 19.3625 14.1539C19.0228 14.1539 18.7471 13.8782 18.7471 13.5385V1.84616H15.0548V13.5385C15.0548 13.8782 14.7791 14.1539 14.4394 14.1539C14.0997 14.1539 13.824 13.8782 13.824 13.5385V4.3077H10.1317V19.6923L7.63941 16.2819C6.90094 15.1434 5.45971 14.7619 4.40371 15.4142C3.35141 16.0812 3.09048 17.536 3.8191 18.6708C3.8191 18.6708 7.83879 24.7545 9.55202 27.3588C11.2653 29.9631 14.0406 32 19.2308 32C27.824 32 28.5933 25.3637 28.5933 23.3846C28.5933 21.4055 28.5933 6.76924 28.5933 6.76924H24.9009Z" fill="#6C63FF"/>
</svg>
