<svg width="137" height="21" viewBox="0 0 137 21" fill="none" xmlns="http://www.w3.org/2000/svg">
<path d="M4 19.1061H17C17.2652 19.1061 17.5196 19.0039 17.7071 18.822C17.8946 18.6401 18 18.3934 18 18.1362V4.55701H4V19.1061Z" fill="#2EC5CE"/>
<path d="M32.778 17.18C31.71 17.18 30.792 17.018 30.024 16.694C29.256 16.37 28.674 15.944 28.278 15.416C27.882 14.888 27.672 14.318 27.648 13.706C27.648 13.598 27.684 13.508 27.756 13.436C27.828 13.364 27.918 13.328 28.026 13.328H29.628C29.772 13.328 29.88 13.358 29.952 13.418C30.036 13.466 30.114 13.55 30.186 13.67C30.306 14.078 30.582 14.42 31.014 14.696C31.446 14.972 32.034 15.11 32.778 15.11C33.63 15.11 34.272 14.972 34.704 14.696C35.136 14.408 35.352 14.012 35.352 13.508C35.352 13.172 35.238 12.896 35.01 12.68C34.794 12.464 34.464 12.278 34.02 12.122C33.588 11.966 32.94 11.774 32.076 11.546C30.66 11.21 29.622 10.766 28.962 10.214C28.314 9.65 27.99 8.852 27.99 7.82C27.99 7.124 28.176 6.506 28.548 5.966C28.932 5.426 29.478 5 30.186 4.688C30.906 4.376 31.74 4.22 32.688 4.22C33.672 4.22 34.524 4.394 35.244 4.742C35.964 5.09 36.51 5.528 36.882 6.056C37.266 6.572 37.47 7.088 37.494 7.604C37.494 7.712 37.458 7.802 37.386 7.874C37.314 7.946 37.224 7.982 37.116 7.982H35.442C35.19 7.982 35.016 7.868 34.92 7.64C34.848 7.256 34.608 6.938 34.2 6.686C33.792 6.422 33.288 6.29 32.688 6.29C32.016 6.29 31.488 6.416 31.104 6.668C30.72 6.92 30.528 7.286 30.528 7.766C30.528 8.102 30.624 8.378 30.816 8.594C31.008 8.81 31.308 9.002 31.716 9.17C32.136 9.338 32.736 9.524 33.516 9.728C34.572 9.968 35.412 10.238 36.036 10.538C36.672 10.838 37.14 11.216 37.44 11.672C37.74 12.128 37.89 12.71 37.89 13.418C37.89 14.186 37.674 14.858 37.242 15.434C36.822 15.998 36.222 16.43 35.442 16.73C34.674 17.03 33.786 17.18 32.778 17.18ZM43.7688 17.18C42.4368 17.18 41.3748 16.796 40.5828 16.028C39.8028 15.248 39.3888 14.156 39.3408 12.752L39.3228 12.302L39.3408 11.852C39.4008 10.484 39.8208 9.41 40.6008 8.63C41.3928 7.85 42.4488 7.46 43.7688 7.46C45.1848 7.46 46.2768 7.892 47.0448 8.756C47.8248 9.62 48.2148 10.772 48.2148 12.212V12.59C48.2148 12.71 48.1728 12.812 48.0888 12.896C48.0048 12.98 47.8968 13.022 47.7648 13.022H41.7888V13.166C41.8128 13.826 41.9928 14.384 42.3288 14.84C42.6768 15.284 43.1508 15.506 43.7508 15.506C44.4588 15.506 45.0288 15.23 45.4608 14.678C45.5688 14.546 45.6528 14.462 45.7128 14.426C45.7848 14.39 45.8868 14.372 46.0188 14.372H47.5668C47.6748 14.372 47.7648 14.408 47.8368 14.48C47.9208 14.54 47.9628 14.618 47.9628 14.714C47.9628 15.002 47.7888 15.344 47.4408 15.74C47.1048 16.124 46.6188 16.46 45.9828 16.748C45.3468 17.036 44.6088 17.18 43.7688 17.18ZM45.7668 11.51V11.456C45.7668 10.748 45.5868 10.178 45.2268 9.746C44.8788 9.314 44.3928 9.098 43.7688 9.098C43.1448 9.098 42.6588 9.314 42.3108 9.746C41.9628 10.178 41.7888 10.748 41.7888 11.456V11.51H45.7668ZM54.1755 17.18C52.8555 17.18 51.7995 16.814 51.0075 16.082C50.2275 15.35 49.8135 14.336 49.7655 13.04L49.7475 12.32L49.7655 11.6C49.8135 10.304 50.2275 9.29 51.0075 8.558C51.7995 7.826 52.8555 7.46 54.1755 7.46C55.1115 7.46 55.9035 7.628 56.5515 7.964C57.2115 8.3 57.6975 8.714 58.0095 9.206C58.3335 9.686 58.5075 10.142 58.5315 10.574C58.5435 10.694 58.5015 10.796 58.4055 10.88C58.3215 10.964 58.2195 11.006 58.0995 11.006H56.5155C56.3955 11.006 56.2995 10.982 56.2275 10.934C56.1675 10.874 56.1075 10.778 56.0475 10.646C55.8675 10.178 55.6275 9.842 55.3275 9.638C55.0395 9.434 54.6675 9.332 54.2115 9.332C53.5995 9.332 53.1195 9.53 52.7715 9.926C52.4235 10.31 52.2375 10.898 52.2135 11.69L52.1955 12.356L52.2135 12.95C52.2615 14.522 52.9275 15.308 54.2115 15.308C54.6795 15.308 55.0575 15.206 55.3455 15.002C55.6335 14.798 55.8675 14.462 56.0475 13.994C56.1075 13.862 56.1675 13.772 56.2275 13.724C56.2995 13.664 56.3955 13.634 56.5155 13.634H58.0995C58.2195 13.634 58.3215 13.676 58.4055 13.76C58.5015 13.844 58.5435 13.946 58.5315 14.066C58.5075 14.486 58.3395 14.936 58.0275 15.416C57.7155 15.896 57.2355 16.31 56.5875 16.658C55.9395 17.006 55.1355 17.18 54.1755 17.18ZM63.8827 17.18C62.7787 17.18 61.9087 16.82 61.2727 16.1C60.6367 15.368 60.3187 14.378 60.3187 13.13V8.072C60.3187 7.952 60.3607 7.85 60.4447 7.766C60.5287 7.682 60.6307 7.64 60.7507 7.64H62.3347C62.4667 7.64 62.5687 7.682 62.6407 7.766C62.7247 7.838 62.7667 7.94 62.7667 8.072V13.022C62.7667 14.51 63.4207 15.254 64.7287 15.254C65.3527 15.254 65.8447 15.056 66.2047 14.66C66.5767 14.264 66.7627 13.718 66.7627 13.022V8.072C66.7627 7.952 66.8047 7.85 66.8887 7.766C66.9727 7.682 67.0747 7.64 67.1947 7.64H68.7787C68.9107 7.64 69.0127 7.682 69.0847 7.766C69.1687 7.838 69.2107 7.94 69.2107 8.072V16.568C69.2107 16.688 69.1687 16.79 69.0847 16.874C69.0127 16.958 68.9107 17 68.7787 17H67.3207C67.2007 17 67.0987 16.958 67.0147 16.874C66.9307 16.79 66.8887 16.688 66.8887 16.568V15.83C66.2167 16.73 65.2147 17.18 63.8827 17.18ZM72.0204 17C71.9004 17 71.7984 16.958 71.7144 16.874C71.6304 16.79 71.5884 16.688 71.5884 16.568V8.09C71.5884 7.97 71.6304 7.868 71.7144 7.784C71.7984 7.688 71.9004 7.64 72.0204 7.64H73.4784C73.6104 7.64 73.7184 7.682 73.8024 7.766C73.8864 7.85 73.9284 7.958 73.9284 8.09V8.828C74.2164 8.444 74.5764 8.15 75.0084 7.946C75.4524 7.742 75.9564 7.64 76.5204 7.64H77.2584C77.3904 7.64 77.4924 7.682 77.5644 7.766C77.6484 7.838 77.6904 7.94 77.6904 8.072V9.368C77.6904 9.488 77.6484 9.59 77.5644 9.674C77.4924 9.758 77.3904 9.8 77.2584 9.8H75.8544C75.2904 9.8 74.8464 9.962 74.5224 10.286C74.1984 10.61 74.0364 11.054 74.0364 11.618V16.568C74.0364 16.688 73.9944 16.79 73.9104 16.874C73.8264 16.958 73.7184 17 73.5864 17H72.0204ZM79.4543 6.092C79.3343 6.092 79.2323 6.05 79.1483 5.966C79.0643 5.882 79.0223 5.78 79.0223 5.66V4.364C79.0223 4.244 79.0643 4.142 79.1483 4.058C79.2323 3.974 79.3343 3.932 79.4543 3.932H81.0923C81.2123 3.932 81.3143 3.974 81.3983 4.058C81.4943 4.142 81.5423 4.244 81.5423 4.364V5.66C81.5423 5.78 81.5003 5.882 81.4163 5.966C81.3323 6.05 81.2243 6.092 81.0923 6.092H79.4543ZM79.5263 17C79.4063 17 79.3043 16.958 79.2203 16.874C79.1363 16.79 79.0942 16.688 79.0942 16.568V8.072C79.0942 7.952 79.1363 7.85 79.2203 7.766C79.3043 7.682 79.4063 7.64 79.5263 7.64H81.0203C81.1523 7.64 81.2543 7.682 81.3263 7.766C81.4103 7.838 81.4523 7.94 81.4523 8.072V16.568C81.4523 16.688 81.4103 16.79 81.3263 16.874C81.2543 16.958 81.1523 17 81.0203 17H79.5263ZM88.0703 17C86.9783 17 86.1563 16.718 85.6043 16.154C85.0643 15.578 84.7943 14.738 84.7943 13.634V9.548H83.3723C83.2523 9.548 83.1503 9.506 83.0663 9.422C82.9823 9.326 82.9403 9.218 82.9403 9.098V8.072C82.9403 7.952 82.9823 7.85 83.0663 7.766C83.1503 7.682 83.2523 7.64 83.3723 7.64H84.7943V4.652C84.7943 4.52 84.8363 4.418 84.9203 4.346C85.0043 4.262 85.1063 4.22 85.2263 4.22H86.6843C86.8163 4.22 86.9183 4.262 86.9903 4.346C87.0743 4.418 87.1163 4.52 87.1163 4.652V7.64H89.3663C89.4983 7.64 89.6003 7.682 89.6723 7.766C89.7563 7.838 89.7983 7.94 89.7983 8.072V9.098C89.7983 9.23 89.7563 9.338 89.6723 9.422C89.5883 9.506 89.4863 9.548 89.3663 9.548H87.1163V13.454C87.1163 13.97 87.2063 14.36 87.3863 14.624C87.5663 14.888 87.8663 15.02 88.2863 15.02H89.5283C89.6483 15.02 89.7503 15.062 89.8343 15.146C89.9183 15.23 89.9603 15.332 89.9603 15.452V16.568C89.9603 16.688 89.9183 16.79 89.8343 16.874C89.7623 16.958 89.6603 17 89.5283 17H88.0703ZM93.2491 20.42C93.1531 20.42 93.0691 20.384 92.9971 20.312C92.9251 20.24 92.8891 20.156 92.8891 20.06C92.8891 19.952 92.9131 19.856 92.9611 19.772L94.3651 16.442L90.9091 8.288C90.8611 8.18 90.8371 8.096 90.8371 8.036C90.8491 7.928 90.8911 7.838 90.9631 7.766C91.0351 7.682 91.1251 7.64 91.2331 7.64H92.6911C92.9191 7.64 93.0811 7.754 93.1771 7.982L95.5711 13.868L98.0371 7.982C98.1331 7.754 98.2951 7.64 98.5231 7.64H99.9631C100.059 7.64 100.143 7.676 100.215 7.748C100.299 7.82 100.341 7.904 100.341 8C100.341 8.084 100.317 8.18 100.269 8.288L95.1751 20.078C95.0671 20.306 94.8991 20.42 94.6711 20.42H93.2491ZM102.415 17C102.295 17 102.187 16.958 102.091 16.874C102.007 16.778 101.965 16.67 101.965 16.55V4.85C101.965 4.718 102.007 4.61 102.091 4.526C102.187 4.442 102.295 4.4 102.415 4.4H104.827C104.959 4.4 105.067 4.442 105.151 4.526C105.247 4.61 105.295 4.718 105.295 4.85V16.55C105.295 16.682 105.247 16.79 105.151 16.874C105.067 16.958 104.959 17 104.827 17H102.415ZM108.053 17C107.921 17 107.813 16.958 107.729 16.874C107.645 16.79 107.603 16.682 107.603 16.55V8.09C107.603 7.958 107.645 7.85 107.729 7.766C107.813 7.682 107.921 7.64 108.053 7.64H110.123C110.255 7.64 110.363 7.682 110.447 7.766C110.543 7.85 110.591 7.958 110.591 8.09V8.774C110.915 8.378 111.329 8.06 111.833 7.82C112.349 7.58 112.931 7.46 113.579 7.46C114.635 7.46 115.493 7.82 116.153 8.54C116.813 9.248 117.143 10.244 117.143 11.528V16.55C117.143 16.67 117.101 16.778 117.017 16.874C116.933 16.958 116.825 17 116.693 17H114.425C114.305 17 114.197 16.958 114.101 16.874C114.017 16.778 113.975 16.67 113.975 16.55V11.636C113.975 11.072 113.837 10.64 113.561 10.34C113.285 10.028 112.889 9.872 112.373 9.872C111.869 9.872 111.473 10.028 111.185 10.34C110.897 10.64 110.753 11.072 110.753 11.636V16.55C110.753 16.67 110.711 16.778 110.627 16.874C110.543 16.958 110.435 17 110.303 17H108.053ZM120.576 17C120.456 17 120.348 16.958 120.252 16.874C120.168 16.778 120.126 16.67 120.126 16.55V9.998H118.758C118.626 9.998 118.518 9.956 118.434 9.872C118.35 9.788 118.308 9.68 118.308 9.548V8.09C118.308 7.958 118.35 7.85 118.434 7.766C118.518 7.682 118.626 7.64 118.758 7.64H120.126V7.064C120.126 5.876 120.462 5.018 121.134 4.49C121.818 3.95 122.796 3.68 124.068 3.68H125.472C125.604 3.68 125.712 3.722 125.796 3.806C125.88 3.89 125.922 3.998 125.922 4.13V5.588C125.922 5.708 125.88 5.816 125.796 5.912C125.712 5.996 125.604 6.038 125.472 6.038H124.212C123.816 6.038 123.534 6.134 123.366 6.326C123.198 6.506 123.114 6.782 123.114 7.154V7.64H125.292C125.424 7.64 125.532 7.682 125.616 7.766C125.7 7.85 125.742 7.958 125.742 8.09V9.548C125.742 9.668 125.7 9.776 125.616 9.872C125.532 9.956 125.424 9.998 125.292 9.998H123.114V16.55C123.114 16.67 123.072 16.778 122.988 16.874C122.904 16.958 122.796 17 122.664 17H120.576ZM131.349 17.18C129.861 17.18 128.715 16.826 127.911 16.118C127.107 15.41 126.669 14.414 126.597 13.13C126.585 12.974 126.579 12.704 126.579 12.32C126.579 11.936 126.585 11.666 126.597 11.51C126.669 10.238 127.119 9.248 127.947 8.54C128.775 7.82 129.909 7.46 131.349 7.46C132.801 7.46 133.941 7.82 134.769 8.54C135.597 9.248 136.047 10.238 136.119 11.51C136.131 11.666 136.137 11.936 136.137 12.32C136.137 12.704 136.131 12.974 136.119 13.13C136.047 14.414 135.609 15.41 134.805 16.118C134.001 16.826 132.849 17.18 131.349 17.18ZM131.349 14.984C131.877 14.984 132.267 14.828 132.519 14.516C132.771 14.192 132.915 13.7 132.951 13.04C132.963 12.92 132.969 12.68 132.969 12.32C132.969 11.96 132.963 11.72 132.951 11.6C132.915 10.952 132.765 10.466 132.501 10.142C132.249 9.818 131.865 9.656 131.349 9.656C130.353 9.656 129.825 10.304 129.765 11.6L129.747 12.32L129.765 13.04C129.789 13.7 129.927 14.192 130.179 14.516C130.443 14.828 130.833 14.984 131.349 14.984Z" fill="white"/>
<ellipse cx="7" cy="8.43679" rx="7" ry="6.78958" fill="#6C63FF"/>
</svg>
