<svg width="36" height="36" viewBox="0 0 36 36" fill="none" xmlns="http://www.w3.org/2000/svg">
<path opacity="0.1" fill-rule="evenodd" clip-rule="evenodd" d="M0 18C0 8.05888 8.05888 0 18 0C27.9411 0 36 8.05888 36 18C36 27.9411 27.9411 36 18 36C8.05888 36 0 27.9411 0 18Z" fill="white"/>
<path fill-rule="evenodd" clip-rule="evenodd" d="M17.4609 14.6306L17.4987 15.2534L16.8691 15.1771C14.5776 14.8848 12.5757 13.8933 10.876 12.2282L10.045 11.4019L9.83098 12.0121C9.37772 13.3722 9.6673 14.8085 10.6116 15.7745C11.1152 16.3084 11.0019 16.3847 10.1332 16.0669C9.83098 15.9652 9.56658 15.8889 9.5414 15.9271C9.45326 16.0161 9.75544 17.1728 9.99466 17.6304C10.322 18.2659 10.9893 18.8887 11.7196 19.2574L12.3365 19.5497L11.6063 19.5624C10.9012 19.5624 10.876 19.5751 10.9515 19.8421C11.2034 20.6683 12.198 21.5454 13.306 21.9267L14.0866 22.1936L13.4067 22.6004C12.3995 23.1851 11.216 23.5156 10.0324 23.541C9.46585 23.5537 9 23.6045 9 23.6427C9 23.7698 10.5361 24.4816 11.43 24.7612C14.1118 25.5875 17.2972 25.2316 19.6894 23.8206C21.3892 22.8165 23.0889 20.8208 23.8821 18.8887C24.3102 17.8592 24.7383 15.9779 24.7383 15.0754C24.7383 14.4907 24.7761 14.4145 25.4811 13.7154C25.8966 13.3086 26.2869 12.8637 26.3625 12.7366C26.4884 12.4951 26.4758 12.4951 25.8337 12.7112C24.7635 13.0925 24.6124 13.0417 25.1412 12.4697C25.5315 12.0629 25.9973 11.3257 25.9973 11.1096C25.9973 11.0715 25.8085 11.135 25.5944 11.2494C25.3678 11.3765 24.8642 11.5672 24.4865 11.6816L23.8066 11.8977L23.1896 11.4782C22.8497 11.2494 22.3712 10.9952 22.1194 10.9189C21.4773 10.741 20.4952 10.7664 19.9161 10.9698C18.3422 11.5418 17.3476 13.0163 17.4609 14.6306Z" fill="white"/>
</svg>
